<svg class="animated" id="freepik_stories-personal-data" xmlns="http://www.w3.org/2000/svg" viewBox="0 0 500 500" version="1.1" xmlns:xlink="http://www.w3.org/1999/xlink" xmlns:svgjs="http://svgjs.com/svgjs"><style>svg#freepik_stories-personal-data:not(.animated) .animable {opacity: 0;}svg#freepik_stories-personal-data.animated #freepik--background-complete--inject-6 {animation: 3s Infinite  linear floating;animation-delay: 0s;}svg#freepik_stories-personal-data.animated #freepik--Address--inject-6 {animation: 6s Infinite  linear floating;animation-delay: 0s;}svg#freepik_stories-personal-data.animated #freepik--finger-print--inject-6 {animation: 6s Infinite  linear floating;animation-delay: 0s;}svg#freepik_stories-personal-data.animated #freepik--Localization--inject-6 {animation: 6s Infinite  linear floating;animation-delay: 0s;}svg#freepik_stories-personal-data.animated #freepik--online-identifier--inject-6 {animation: 6s Infinite  linear floating;animation-delay: 0s;}svg#freepik_stories-personal-data.animated #freepik--health-information--inject-6 {animation: 3s Infinite  linear floating;animation-delay: 0s;}            @keyframes floating {                0% {                    opacity: 1;                    transform: translateY(0px);                }                50% {                    transform: translateY(-10px);                }                100% {                    opacity: 1;                    transform: translateY(0px);                }            }        </style><g id="freepik--background-complete--inject-6" class="animable animator-active" style="transform-origin: 250px 228.23px;"><rect x="416.78" y="398.49" width="33.12" height="0.25" style="fill: rgb(235, 235, 235); transform-origin: 433.34px 398.615px;" id="el1adhatc1o2d" class="animable"></rect><rect x="322.53" y="401.21" width="8.69" height="0.25" style="fill: rgb(235, 235, 235); transform-origin: 326.875px 401.335px;" id="el6js5tfvopio" class="animable"></rect><rect x="396.59" y="389.21" width="19.19" height="0.25" style="fill: rgb(235, 235, 235); transform-origin: 406.185px 389.335px;" id="elwirchefit2" class="animable"></rect><rect x="52.46" y="390.89" width="43.19" height="0.25" style="fill: rgb(235, 235, 235); transform-origin: 74.055px 391.015px;" id="el8ipzja8v5nb" class="animable"></rect><rect x="104.56" y="390.89" width="6.33" height="0.25" style="fill: rgb(235, 235, 235); transform-origin: 107.725px 391.015px;" id="el992ikt8u9ha" class="animable"></rect><rect x="131.47" y="395.11" width="93.68" height="0.25" style="fill: rgb(235, 235, 235); transform-origin: 178.31px 395.235px;" id="elv1n8tjm9xz" class="animable"></rect><path d="M237,337.8H43.91a5.71,5.71,0,0,1-5.7-5.71V60.66A5.71,5.71,0,0,1,43.91,55H237a5.71,5.71,0,0,1,5.71,5.71V332.09A5.71,5.71,0,0,1,237,337.8ZM43.91,55.2a5.46,5.46,0,0,0-5.45,5.46V332.09a5.46,5.46,0,0,0,5.45,5.46H237a5.47,5.47,0,0,0,5.46-5.46V60.66A5.47,5.47,0,0,0,237,55.2Z" style="fill: rgb(235, 235, 235); transform-origin: 140.46px 196.4px;" id="el4kuwq5oz92j" class="animable"></path><path d="M453.31,337.8H260.21a5.72,5.72,0,0,1-5.71-5.71V60.66A5.72,5.72,0,0,1,260.21,55h193.1A5.71,5.71,0,0,1,459,60.66V332.09A5.71,5.71,0,0,1,453.31,337.8ZM260.21,55.2a5.47,5.47,0,0,0-5.46,5.46V332.09a5.47,5.47,0,0,0,5.46,5.46h193.1a5.47,5.47,0,0,0,5.46-5.46V60.66a5.47,5.47,0,0,0-5.46-5.46Z" style="fill: rgb(235, 235, 235); transform-origin: 356.75px 196.4px;" id="el6aw8meude6" class="animable"></path><rect y="382.4" width="500" height="0.25" style="fill: rgb(235, 235, 235); transform-origin: 250px 382.525px;" id="eldhevt338coj" class="animable"></rect><circle cx="246.77" cy="220.85" r="113.65" style="fill: rgb(240, 240, 240); transform-origin: 246.77px 220.85px;" id="elmrdlo7pvif9" class="animable"></circle><path d="M248.48,89.71v1H248c-1.13,0-2.25,0-3.37.06s-2.22.07-3.32.14-2.34.14-3.5.23q-4.38.36-8.68,1a131.71,131.71,0,0,0-94.59,64.6c-.2.33-.39.67-.58,1a130.71,130.71,0,0,0-16.88,64.4v.21c0,.33,0,.67,0,1A130.6,130.6,0,0,0,134.76,288l.59,1a131.56,131.56,0,0,0,105,64.35q3,.18,5.94.23h2.21v1h-1.11a130.51,130.51,0,0,1-15.15-1,132.6,132.6,0,0,1-98-64.6l-.58-1a132.22,132.22,0,0,1-.81-130.22l.56-1a132.87,132.87,0,0,1,89.78-64.6q2.93-.57,5.88-1A132.85,132.85,0,0,1,248.48,89.71Z" style="fill: rgb(224, 224, 224); transform-origin: 182.305px 222.145px;" id="elzvqszatgqdb" class="animable"></path><path d="M247.65,354.56c-36.76,0-66.05-95.1-66.05-132.42,0-19.48,8.23-53,19.57-79.82,8.32-19.65,25.54-52.61,47.31-52.61v1c-35.95,0-65.88,95.43-65.88,131.43,0,16.7,6.56,49.35,19.08,79.43,8.08,19.42,24.8,52,46,52Z" style="fill: rgb(224, 224, 224); transform-origin: 215.04px 222.135px;" id="eljbf2ojmsvb8" class="animable"></path><g id="elzmcrk9inpv"><rect x="115.72" y="221.64" width="263.86" height="1" style="fill: rgb(224, 224, 224); transform-origin: 247.65px 222.14px; transform: rotate(-89.66deg);" class="animable" id="elx9orf7hpc8b"></rect></g><path d="M244.61,354.56v-1c72.46,0,131.42-58.95,131.42-131.42s-59-131.43-131.42-131.43v-1c73,0,132.42,59.41,132.42,132.43S317.63,354.56,244.61,354.56Z" style="fill: rgb(224, 224, 224); transform-origin: 310.82px 222.135px;" id="el8aoa8qmkbn6" class="animable"></path><path d="M245.44,354.56v-1c21.17,0,37.89-32.57,46-52,12.53-30.08,19.08-62.73,19.08-79.43,0-36-29.93-131.43-65.88-131.43v-1c21.77,0,39,33,47.31,52.61,11.34,26.77,19.57,60.34,19.57,79.82C311.49,259.46,282.2,354.56,245.44,354.56Z" style="fill: rgb(224, 224, 224); transform-origin: 278.08px 222.13px;" id="el7nun0aqen9e" class="animable"></path><g id="el931235j5dtr"><rect x="244.94" y="90.21" width="1" height="263.86" style="fill: rgb(224, 224, 224); transform-origin: 245.44px 222.14px; transform: rotate(-0.36deg);" class="animable" id="elylag2vjbugc"></rect></g><polygon points="358.38 287.96 296.8 287.96 247.73 287.96 246.73 287.96 245.86 287.96 196.82 287.96 195.68 287.96 135.35 287.96 134.19 287.96 133.61 286.96 134.76 286.96 195.33 286.96 196.47 286.96 245.85 286.96 246.74 286.96 247.74 286.96 297.16 286.96 358.96 286.96 358.38 287.96" style="fill: rgb(224, 224, 224); transform-origin: 246.285px 287.46px;" id="elakr5eo3h5ju" class="animable"></polygon><path d="M359.2,155.74H133.36l-.56,1h227Z" style="fill: rgb(224, 224, 224); transform-origin: 246.3px 156.24px;" id="elm101gxgy4q" class="animable"></path><rect x="115.34" y="220.85" width="259.97" height="1" style="fill: rgb(224, 224, 224); transform-origin: 245.325px 221.35px;" id="eli7jqi1rpfmf" class="animable"></rect><rect x="116.04" y="218.07" width="1" height="7.32" style="fill: rgb(224, 224, 224); transform-origin: 116.54px 221.73px;" id="elftv3o6i9f2m" class="animable"></rect><rect x="132.28" y="218.07" width="1" height="7.32" style="fill: rgb(224, 224, 224); transform-origin: 132.78px 221.73px;" id="elxprs10bln8m" class="animable"></rect><rect x="148.52" y="218.07" width="1" height="7.32" style="fill: rgb(224, 224, 224); transform-origin: 149.02px 221.73px;" id="el6bpzt3eo643" class="animable"></rect><rect x="164.75" y="218.07" width="1" height="7.32" style="fill: rgb(224, 224, 224); transform-origin: 165.25px 221.73px;" id="elieck84l9pv" class="animable"></rect><rect x="180.99" y="218.07" width="1" height="7.32" style="fill: rgb(224, 224, 224); transform-origin: 181.49px 221.73px;" id="el1qipwwrxat7" class="animable"></rect><rect x="197.22" y="218.07" width="1" height="7.32" style="fill: rgb(224, 224, 224); transform-origin: 197.72px 221.73px;" id="elgnsfivdzewk" class="animable"></rect><rect x="213.46" y="218.07" width="1" height="7.32" style="fill: rgb(224, 224, 224); transform-origin: 213.96px 221.73px;" id="el9bx1v58l01t" class="animable"></rect><rect x="229.69" y="218.07" width="1" height="7.32" style="fill: rgb(224, 224, 224); transform-origin: 230.19px 221.73px;" id="elbzb34ppid2" class="animable"></rect><rect x="245.93" y="218.07" width="1" height="7.32" style="fill: rgb(224, 224, 224); transform-origin: 246.43px 221.73px;" id="elso9lnyzjdin" class="animable"></rect><rect x="262.17" y="218.07" width="1" height="7.32" style="fill: rgb(224, 224, 224); transform-origin: 262.67px 221.73px;" id="elvpj03q136vr" class="animable"></rect><rect x="278.4" y="218.07" width="1" height="7.32" style="fill: rgb(224, 224, 224); transform-origin: 278.9px 221.73px;" id="elu66w43icaq" class="animable"></rect><rect x="294.64" y="218.07" width="1" height="7.32" style="fill: rgb(224, 224, 224); transform-origin: 295.14px 221.73px;" id="el2buiskezbr7" class="animable"></rect><rect x="310.87" y="218.07" width="1" height="7.32" style="fill: rgb(224, 224, 224); transform-origin: 311.37px 221.73px;" id="elmvqvz0tyxwc" class="animable"></rect><rect x="327.11" y="218.07" width="1" height="7.32" style="fill: rgb(224, 224, 224); transform-origin: 327.61px 221.73px;" id="elwpi7v4z8j8b" class="animable"></rect><rect x="343.34" y="218.07" width="1" height="7.32" style="fill: rgb(224, 224, 224); transform-origin: 343.84px 221.73px;" id="el9vxrakyjha" class="animable"></rect><rect x="359.58" y="218.07" width="1" height="7.32" style="fill: rgb(224, 224, 224); transform-origin: 360.08px 221.73px;" id="elyd1fabg7sxj" class="animable"></rect><rect x="375.82" y="218.07" width="1" height="7.32" style="fill: rgb(224, 224, 224); transform-origin: 376.32px 221.73px;" id="elsemlhx3g9j" class="animable"></rect><rect x="375.91" y="344.38" width="9.42" height="33.77" style="fill: rgb(235, 235, 235); transform-origin: 380.62px 361.265px;" id="elwyfn0dmfuy" class="animable"></rect><rect x="394.41" y="366.07" width="9.42" height="12.07" style="fill: rgb(235, 235, 235); transform-origin: 399.12px 372.105px;" id="elbjv261kx5za" class="animable"></rect><rect x="412.9" y="360.1" width="9.42" height="18.04" style="fill: rgb(235, 235, 235); transform-origin: 417.61px 369.12px;" id="elmnkbjxgas6s" class="animable"></rect><rect x="431.4" y="371.23" width="9.42" height="6.92" style="fill: rgb(235, 235, 235); transform-origin: 436.11px 374.69px;" id="el2xg1wx5skwb" class="animable"></rect><rect x="449.9" y="353.28" width="9.42" height="24.86" style="fill: rgb(235, 235, 235); transform-origin: 454.61px 365.71px;" id="elt5gnq3v87kf" class="animable"></rect><rect x="38.46" y="344.38" width="68.52" height="8.39" style="fill: rgb(235, 235, 235); transform-origin: 72.72px 348.575px;" id="elmud3rnfezqq" class="animable"></rect><rect x="38.46" y="356.29" width="93.01" height="8.39" style="fill: rgb(224, 224, 224); transform-origin: 84.965px 360.485px;" id="eldgi3g87ibhk" class="animable"></rect><rect x="38.46" y="368.09" width="27.13" height="8.39" style="fill: rgb(240, 240, 240); transform-origin: 52.025px 372.285px;" id="elb20lxkuznoe" class="animable"></rect><g id="elj3jj49cl0hk"><circle cx="331.54" cy="359.93" r="18.19" style="fill: none; stroke: rgb(235, 235, 235); stroke-miterlimit: 10; stroke-width: 2px; transform-origin: 331.54px 359.93px; transform: rotate(-76.72deg);" class="animable" id="el0hhr6v5ocuew"></circle></g><polygon points="331.22 365.95 342.88 359.11 331.61 369.97 331.22 365.95" style="fill: rgb(235, 235, 235); transform-origin: 337.05px 364.54px;" id="elw7g4jhxna" class="animable"></polygon><path d="M344.1,368.89l-.81-.59a14.51,14.51,0,1,0-23.56-.08l-.81.58a15.51,15.51,0,1,1,25.18.09Z" style="fill: rgb(235, 235, 235); transform-origin: 331.542px 356.583px;" id="el7djuzbjbjpk" class="animable"></path><rect x="133.31" y="72.71" width="8.49" height="8.49" style="fill: rgb(224, 224, 224); transform-origin: 137.555px 76.955px;" id="elukbmdntwc" class="animable"></rect><rect x="142.83" y="72.71" width="8.49" height="8.49" style="fill: rgb(230, 230, 230); transform-origin: 147.075px 76.955px;" id="el42w4i5nono2" class="animable"></rect><rect x="152.35" y="72.71" width="8.49" height="8.49" style="fill: rgb(235, 235, 235); transform-origin: 156.595px 76.955px;" id="elrraoi1ob6d" class="animable"></rect><rect x="161.87" y="72.6" width="8.49" height="8.49" style="fill: rgb(240, 240, 240); transform-origin: 166.115px 76.845px;" id="elggo69dapzpd" class="animable"></rect><rect x="171.38" y="72.71" width="8.49" height="8.49" style="fill: rgb(245, 245, 245); transform-origin: 175.625px 76.955px;" id="el2qhf30vf2v3" class="animable"></rect><rect x="180.9" y="72.71" width="8.49" height="8.49" style="fill: rgb(250, 250, 250); transform-origin: 185.145px 76.955px;" id="el4ipd31tyuz7" class="animable"></rect><path d="M314.75,88.61c0,2-1.47,3.24-3.81,3.24h-1.75L308.77,94h-1.83l1.57-7.84h3.17C313.64,86.17,314.75,87.08,314.75,88.61Zm-1.84.16c0-.76-.54-1.12-1.45-1.12H310l-.54,2.72H311C312.22,90.37,312.91,89.81,312.91,88.77Z" style="fill: rgb(224, 224, 224); transform-origin: 310.845px 90.08px;" id="elwwyu9qzvcjd" class="animable"></path><path d="M318.11,87.63l-.33,1.7h3.64l-.28,1.41h-3.65l-.36,1.82h4.27L321.1,94H315l1.57-7.84h5.92l-.3,1.46Z" style="fill: rgb(224, 224, 224); transform-origin: 318.745px 90.08px;" id="el3ghlqetrn5e" class="animable"></path><path d="M328.14,91.59,329.5,94h-1.91l-1.23-2.19h-1.55L324.38,94h-1.83l1.57-7.84h3.19c1.95,0,3.07.9,3.07,2.43A3,3,0,0,1,328.14,91.59Zm.4-2.82c0-.76-.54-1.12-1.47-1.12h-1.43l-.55,2.72h1.55C327.84,90.37,328.54,89.81,328.54,88.77Z" style="fill: rgb(224, 224, 224); transform-origin: 326.466px 90.08px;" id="elfbie2zfh4lh" class="animable"></path><path d="M330.37,93.27l.74-1.4a4.43,4.43,0,0,0,2.59.82c1,0,1.62-.35,1.62-.92,0-1.25-3.89-.58-3.89-3.08,0-1.61,1.42-2.65,3.59-2.65a5.13,5.13,0,0,1,2.71.67L337,88.1a3.82,3.82,0,0,0-2.12-.61c-1.06,0-1.67.41-1.67,1,0,1.28,3.88.61,3.88,3,0,1.62-1.43,2.67-3.61,2.67A5.56,5.56,0,0,1,330.37,93.27Z" style="fill: rgb(224, 224, 224); transform-origin: 334.05px 90.099px;" id="el42yu3xglgns" class="animable"></path><path d="M338.18,90.74A4.61,4.61,0,0,1,343,86c2.38,0,3.82,1.39,3.82,3.4A4.61,4.61,0,0,1,342,94.15C339.61,94.15,338.18,92.76,338.18,90.74Zm6.83-1.2a1.9,1.9,0,0,0-2.14-2A2.86,2.86,0,0,0,340,90.64a1.89,1.89,0,0,0,2.13,2A2.86,2.86,0,0,0,345,89.54Z" style="fill: rgb(224, 224, 224); transform-origin: 342.5px 90.075px;" id="el61too66s1r7" class="animable"></path><path d="M356.15,86.17,354.58,94h-1.49l-2.92-4.9-1,4.9h-1.79L349,86.17h1.5l2.92,4.92,1-4.92Z" style="fill: rgb(224, 224, 224); transform-origin: 351.765px 90.085px;" id="el5i548rgo2ef" class="animable"></path><path d="M362,92.33h-3.65l-1,1.68h-1.94l5.07-7.84h1.8L364.2,94h-1.81Zm-.3-1.38-.66-3-1.85,3Z" style="fill: rgb(224, 224, 224); transform-origin: 359.805px 90.09px;" id="elipr0chtmujn" class="animable"></path><path d="M366.59,86.17h1.83l-1.28,6.36h3.93l-.3,1.48H365Z" style="fill: rgb(224, 224, 224); transform-origin: 368.035px 90.09px;" id="elk83x4srwni" class="animable"></path><path d="M339.15,98.75h3.28c2.42,0,3.86,1.26,3.86,3.27,0,2.76-2,4.56-4.88,4.56h-3.83Zm2.31,6.34a2.81,2.81,0,0,0,3-3c0-1.17-.75-1.89-2.22-1.89h-1.56l-1,4.86Z" style="fill: rgb(224, 224, 224); transform-origin: 341.935px 102.665px;" id="elx1djpxitanp" class="animable"></path><path d="M352.3,104.9h-3.65l-1,1.68h-1.94l5.07-7.83h1.79l1.93,7.83h-1.81Zm-.31-1.37-.66-3-1.84,3Z" style="fill: rgb(224, 224, 224); transform-origin: 350.105px 102.665px;" id="el0wsuf9ohr2mg" class="animable"></path><path d="M357.8,100.22h-2.51l.3-1.47h6.83l-.3,1.47h-2.5l-1.27,6.36h-1.82Z" style="fill: rgb(224, 224, 224); transform-origin: 358.855px 102.665px;" id="el487w3c3vsr9" class="animable"></path><path d="M367,104.9h-3.65l-1,1.68h-1.94l5.07-7.83h1.8l1.92,7.83h-1.81Zm-.3-1.37-.66-3-1.85,3Z" style="fill: rgb(224, 224, 224); transform-origin: 364.805px 102.665px;" id="elhfe3jxvh6tm" class="animable"></path></g><g id="freepik--Shadow--inject-6" class="animable" style="transform-origin: 250px 415.69px;"><ellipse id="freepik--path--inject-6" cx="250" cy="415.69" rx="193.89" ry="11.32" style="fill: rgb(245, 245, 245); transform-origin: 250px 415.69px;" class="animable"></ellipse></g><g id="freepik--Address--inject-6" class="animable" style="transform-origin: 140.89px 315.575px;"><rect x="83.21" y="287.28" width="17.3" height="17.3" style="fill: #90CAF9; transform-origin: 91.86px 295.93px;" id="eldzbwjd1xp29" class="animable"></rect><g id="el3xk9j1vqvek"><rect x="83.21" y="287.28" width="17.3" height="17.3" style="fill: rgb(255, 255, 255); opacity: 0.3; transform-origin: 91.86px 295.93px;" class="animable" id="el4bfgrzebzk5"></rect></g><path d="M91.72,260.71,69.18,283.25h8.49v21.33h9.77V290.66H96v13.92h9.77V283.25h8.5Z" style="fill: #90CAF9; transform-origin: 91.725px 282.645px;" id="eld9feasr0yf" class="animable"></path><polygon points="212.12 370.44 113.49 316.21 77.59 316.21 77.59 315.21 113.74 315.21 113.86 315.27 212.6 369.56 212.12 370.44" style="fill: #90CAF9; transform-origin: 145.095px 342.825px;" id="el33bqshojflc" class="animable"></polygon></g><g id="freepik--finger-print--inject-6" class="animable" style="transform-origin: 106.973px 189.657px;"><path d="M71.49,198c.1,8.28,3.59,17,10.8,21.11a17.78,17.78,0,0,0,7,2.19c7.85.75,15.65-4.15,19.39-11.1s3.74-15.53,1.13-23-14.12-25.17-23.43-19S71.36,187,71.49,198Z" style="fill: #90CAF9; transform-origin: 91.5665px 194.147px;" id="elgnxse802328" class="animable"></path><g id="elec82du9eps8"><path d="M71.49,198c.1,8.28,3.59,17,10.8,21.11a17.78,17.78,0,0,0,7,2.19c7.85.75,15.65-4.15,19.39-11.1s3.74-15.53,1.13-23-14.12-25.17-23.43-19S71.36,187,71.49,198Z" style="fill: rgb(255, 255, 255); opacity: 0.7; transform-origin: 91.5665px 194.147px;" class="animable" id="elrogj4ehy3a"></path></g><path d="M76.07,207.64a.73.73,0,0,1-.69-.5,37.24,37.24,0,0,1-1.65-11.54,26.87,26.87,0,0,1,5-15.39.72.72,0,0,1,1.18.84,25.45,25.45,0,0,0-4.78,14.55,35.63,35.63,0,0,0,1.58,11.09.73.73,0,0,1-.47.91A.57.57,0,0,1,76.07,207.64Z" style="fill: #90CAF9; transform-origin: 76.885px 193.773px;" id="elcdjsj55j3e" class="animable"></path><path d="M86.81,218.84a.57.57,0,0,1-.18,0,15.23,15.23,0,0,1-9.93-8.45.72.72,0,1,1,1.29-.65,13.84,13.84,0,0,0,9,7.7.74.74,0,0,1,.51.89A.73.73,0,0,1,86.81,218.84Z" style="fill: #90CAF9; transform-origin: 82.0725px 214.095px;" id="ela1naq4i6x1" class="animable"></path><path d="M91.25,219.38a.72.72,0,1,1,0-1.44c8.59,0,13.81-5.07,15.5-15.06a.74.74,0,0,1,.84-.6.73.73,0,0,1,.59.84C106.38,213.76,100.52,219.38,91.25,219.38Z" style="fill: #90CAF9; transform-origin: 99.3601px 210.826px;" id="el95tte5a6jf4" class="animable"></path><path d="M107.88,200.36h-.06a.72.72,0,0,1-.66-.78c.1-1.26.16-2.6.16-4a24.87,24.87,0,0,0-2.87-11.37.71.71,0,0,1,.3-1,.72.72,0,0,1,1,.3,26.15,26.15,0,0,1,3,12c0,1.41-.05,2.79-.16,4.09A.72.72,0,0,1,107.88,200.36Z" style="fill: #90CAF9; transform-origin: 106.55px 191.737px;" id="eldxpy9bfdv2j" class="animable"></path><path d="M103.91,182.58a.73.73,0,0,1-.61-.33,23.94,23.94,0,0,0-6.61-7,.72.72,0,0,1-.2-1,.71.71,0,0,1,1-.2,25.32,25.32,0,0,1,7,7.39.72.72,0,0,1-.22,1A.7.7,0,0,1,103.91,182.58Z" style="fill: #90CAF9; transform-origin: 100.487px 178.252px;" id="elf0kz8ptq4zs" class="animable"></path><path d="M82.68,177.53a.72.72,0,0,1-.49-1.25c3-2.83,6.31-4.45,9.06-4.45a9.87,9.87,0,0,1,4.14,1,.72.72,0,1,1-.62,1.31,8.43,8.43,0,0,0-3.52-.91c-2.38,0-5.32,1.48-8.07,4.07A.73.73,0,0,1,82.68,177.53Z" style="fill: #90CAF9; transform-origin: 88.881px 174.68px;" id="elaxl7rvb38c" class="animable"></path><path d="M77.87,202.54a.72.72,0,0,1-.71-.59,33.5,33.5,0,0,1-.54-6.17c0-11.24,8.91-19.69,14.68-19.69a9.55,9.55,0,0,1,4.78,1.54.72.72,0,0,1,.24,1,.73.73,0,0,1-1,.25,8.06,8.06,0,0,0-4-1.34c-5.22,0-13.23,8.18-13.23,18.25a32.52,32.52,0,0,0,.51,5.91.72.72,0,0,1-.58.84Z" style="fill: #90CAF9; transform-origin: 86.5247px 189.315px;" id="elxvgb9zxfmyl" class="animable"></path><path d="M83.12,212.69a.72.72,0,0,1-.46-.16,15.49,15.49,0,0,1-4.55-7,.71.71,0,0,1,.44-.92.73.73,0,0,1,.92.44,14.13,14.13,0,0,0,4.12,6.33.72.72,0,0,1-.47,1.27Z" style="fill: #90CAF9; transform-origin: 80.9556px 208.631px;" id="el0igrjh6emu2j" class="animable"></path><path d="M91.3,215.47a14.32,14.32,0,0,1-5.57-1.06.73.73,0,0,1,.57-1.34,12.73,12.73,0,0,0,5,1c11.52,0,13.24-11.43,13.24-18.24a.72.72,0,1,1,1.44,0C106,208.48,100.77,215.47,91.3,215.47Z" style="fill: #90CAF9; transform-origin: 95.6568px 205.29px;" id="elgw51fzyiele" class="animable"></path><path d="M105.08,193.87a.71.71,0,0,1-.71-.63A21.16,21.16,0,0,0,98,180.87a.72.72,0,1,1,1-1.05,22.53,22.53,0,0,1,6.86,13.23.72.72,0,0,1-.62.81Z" style="fill: #90CAF9; transform-origin: 101.82px 186.744px;" id="eluozmx69992q" class="animable"></path><path d="M91.36,211.55c-7.31,0-11.85-6-11.85-15.6a17.44,17.44,0,0,1,3.76-10.65.72.72,0,0,1,1.14.89A15.94,15.94,0,0,0,81,196c0,8.86,3.89,14.15,10.4,14.15a9.87,9.87,0,0,0,5.18-1.31A.73.73,0,0,1,97.3,210,11.34,11.34,0,0,1,91.36,211.55Z" style="fill: #90CAF9; transform-origin: 88.4801px 198.287px;" id="el8h02ycnf6eb" class="animable"></path><path d="M99.61,207.64a.76.76,0,0,1-.43-.14.72.72,0,0,1-.15-1c1.78-2.43,2.73-6.07,2.73-10.54,0-7.82-6.3-14.16-10.4-14.16a7.38,7.38,0,0,0-4.12,1.63.73.73,0,0,1-1-.16.71.71,0,0,1,.16-1,8.62,8.62,0,0,1,5-1.9c4.66,0,11.84,6.7,11.84,15.6,0,4.78-1,8.72-3,11.39A.71.71,0,0,1,99.61,207.64Z" style="fill: #90CAF9; transform-origin: 94.6707px 194.006px;" id="ellsf2i5hdoc" class="animable"></path><path d="M85.73,205.19a.72.72,0,0,1-.54-.25c-1.8-2-2.79-5.16-2.79-8.82,0-6.2,5-11.51,9-11.51a5.6,5.6,0,0,1,2.16.46.72.72,0,0,1,.39,1,.71.71,0,0,1-.94.39,4.17,4.17,0,0,0-1.61-.36c-3,0-7.56,4.33-7.56,10.07,0,3.3.86,6.1,2.42,7.86a.72.72,0,0,1-.06,1A.7.7,0,0,1,85.73,205.19Z" style="fill: #90CAF9; transform-origin: 88.2139px 194.9px;" id="eltjonwrczfxi" class="animable"></path><path d="M91.41,207.64a8.83,8.83,0,0,1-3.49-.69.73.73,0,0,1,.58-1.33,7.23,7.23,0,0,0,2.91.57c6.83,0,7.57-7,7.57-10.07a11.43,11.43,0,0,0-3.85-8.36.72.72,0,0,1-.07-1,.73.73,0,0,1,1-.07,12.7,12.7,0,0,1,4.34,9.45C100.42,203.33,97.06,207.64,91.41,207.64Z" style="fill: #90CAF9; transform-origin: 93.9772px 197.082px;" id="elrlolekmnuq" class="animable"></path><path d="M91.47,203.72c-3,0-5.26-2-6-5.28a.73.73,0,1,1,1.42-.3c.55,2.63,2.21,4.13,4.54,4.13,3.48,0,4.72-3.09,4.72-6a.73.73,0,0,1,.73-.72.72.72,0,0,1,.72.72C97.64,200.81,95.22,203.72,91.47,203.72Z" style="fill: #90CAF9; transform-origin: 91.517px 199.635px;" id="el40m2ld6m1zs" class="animable"></path><path d="M86,197a.73.73,0,0,1-.73-.73c0-4.18,3.32-7.42,6.18-7.42,2.2,0,4.56,1.91,5.61,4.55a.72.72,0,0,1-.4.94.74.74,0,0,1-.94-.41c-.81-2-2.69-3.64-4.27-3.64-2.13,0-4.73,2.76-4.73,6A.73.73,0,0,1,86,197Z" style="fill: #90CAF9; transform-origin: 91.1915px 192.925px;" id="elr8tewoqx7ro" class="animable"></path><path d="M91.52,199.8a3.34,3.34,0,1,1,0-6.67.72.72,0,1,1,0,1.44,1.9,1.9,0,1,0,1.89,1.9,1.86,1.86,0,0,0-.6-1.39.74.74,0,0,1,0-1,.72.72,0,0,1,1,0,3.33,3.33,0,0,1-2.27,5.78Z" style="fill: #90CAF9; transform-origin: 91.441px 196.493px;" id="elq2kpmc8cztg" class="animable"></path><g id="el55reek81d26"><rect x="105.49" y="167.39" width="39.19" height="1" style="fill: #90CAF9; transform-origin: 125.085px 167.89px; transform: rotate(-29.05deg);" class="animable" id="elvl7qjmnwleb"></rect></g></g><g id="freepik--Localization--inject-6" class="animable" style="transform-origin: 146.32px 93.22px;"><polygon points="222.89 119.29 188.73 100.35 113.46 100.35 113.46 99.35 188.99 99.35 223.37 118.42 222.89 119.29" style="fill: #90CAF9; transform-origin: 168.415px 109.32px;" id="elc5k6ycvv0ap" class="animable"></polygon><polygon points="109.94 110.69 69.27 110.69 72.84 95.84 106.36 95.84 109.94 110.69" style="fill: #90CAF9; transform-origin: 89.605px 103.265px;" id="elysl991yp4y" class="animable"></polygon><g id="elgkregvwb30b"><polygon points="109.94 110.69 69.27 110.69 72.84 95.84 106.36 95.84 109.94 110.69" style="fill: rgb(255, 255, 255); opacity: 0.3; transform-origin: 89.605px 103.265px;" class="animable" id="elnm89i9mup9l"></polygon></g><path d="M89.6,67.15A11.28,11.28,0,0,0,78.33,78.42c0,6.23,11.27,22.64,11.27,22.64s11.28-16.41,11.28-22.64A11.28,11.28,0,0,0,89.6,67.15ZM89.6,84a5.14,5.14,0,1,1,5.14-5.13A5.13,5.13,0,0,1,89.6,84Z" style="fill: #90CAF9; transform-origin: 89.605px 84.105px;" id="elg65kxurseyn" class="animable"></path><polygon points="70.64 104.98 76.14 104.97 100.98 100.7 107.54 100.7 107.3 99.7 100.89 99.71 76.05 103.98 70.88 103.98 70.64 104.98" style="fill: rgb(255, 255, 255); transform-origin: 89.09px 102.34px;" id="elrre8e9vttia" class="animable"></polygon></g><g id="freepik--online-identifier--inject-6" class="animable" style="transform-origin: 345.335px 93.635px;"><rect x="378.63" y="71.76" width="43.75" height="43.75" style="fill: #90CAF9; transform-origin: 400.505px 93.635px;" id="elqgrconxghpe" class="animable"></rect><g id="el5ux769s7il8"><rect x="378.63" y="71.76" width="43.75" height="43.75" style="fill: rgb(255, 255, 255); opacity: 0.3; transform-origin: 400.505px 93.635px;" class="animable" id="elikthl1hiy6"></rect></g><rect x="382.67" y="75.8" width="35.66" height="35.66" style="fill: rgb(245, 245, 245); transform-origin: 400.5px 93.63px;" id="els9dbsibhd5" class="animable"></rect><path d="M407.79,89.93a9.62,9.62,0,0,1-3.32,7.56,5.72,5.72,0,0,1-7.26,0,9.62,9.62,0,0,1-3.32-7.56c0-4.89.88-8.86,6.95-8.86S407.79,85,407.79,89.93Z" style="fill: #90CAF9; transform-origin: 400.84px 89.9297px;" id="elntf2630fe" class="animable"></path><path d="M414.48,109v2.5H387.2V109c0-4.75,2.76-7.94,7.68-8.55l.93-.06a1.4,1.4,0,0,0,1.4-1.4V97.49a5.72,5.72,0,0,0,7.26,0V99a1.4,1.4,0,0,0,1.4,1.4l.93.06C411.72,101,414.48,104.22,414.48,109Z" style="fill: #90CAF9; transform-origin: 400.84px 104.495px;" id="ela1l1kh0tdch" class="animable"></path><polygon points="268.78 97.36 268.29 96.48 302.68 77.41 369.36 77.41 369.36 78.41 302.94 78.41 268.78 97.36" style="fill: #90CAF9; transform-origin: 318.825px 87.385px;" id="elzrv64f6dor" class="animable"></polygon></g><g id="freepik--health-information--inject-6" class="animable" style="transform-origin: 349.999px 178.65px;"><path d="M414.27,187.5h5.06c-4.31,4.49-10.52,8.92-16.42,13.4l-4,2.94-.09.06-3.9-3.26c-5-4.31-10.23-8.81-13.94-13.28h7.51l3.29-11.29,4.91,21.64,4.57-11.08,2.85,6.18L407.46,182l3.74,10.56Z" style="fill: #90CAF9; transform-origin: 400.155px 189.985px;" id="elgu62td50eg" class="animable"></path><g id="el14sxqu7n3xe"><path d="M414.27,187.5h5.06c-4.31,4.49-10.52,8.92-16.42,13.4l-4,2.94-.09.06-3.9-3.26c-5-4.31-10.23-8.81-13.94-13.28h7.51l3.29-11.29,4.91,21.64,4.57-11.08,2.85,6.18L407.46,182l3.74,10.56Z" style="fill: rgb(255, 255, 255); opacity: 0.3; transform-origin: 400.155px 189.985px;" class="animable" id="elti56yeflm8"></path></g><path d="M420.4,185.34h-6.79l-2.13,3.51-4.09-11.55-3.5,11.28-2.7-5.86L397,192.87l-5.1-22.43-4.29,14.76H380c-4.65-6-6.21-11.92-.2-17.17,7.52-6.58,16.23-.45,20.64,3.53,4.65-3.69,14.86-11.24,22.69-1.42C427.1,175.07,424.73,180.44,420.4,185.34Z" style="fill: #90CAF9; transform-origin: 400.516px 179px;" id="el63m2oiovr14" class="animable"></path><polygon points="369.36 187.43 334.6 187.43 334.49 187.36 274.84 154.28 275.32 153.4 334.86 186.43 369.36 186.43 369.36 187.43" style="fill: #90CAF9; transform-origin: 322.1px 170.415px;" id="el1kdg8ftlmt3" class="animable"></polygon></g><g id="freepik--Income--inject-6" class="animable" style="transform-origin: 347.63px 257.495px;"><path d="M414.25,290.76c0,4.85-3.34,9.1-10.2,10.39a24.65,24.65,0,0,1-4.56.4,26.37,26.37,0,0,1-2.67-.13c-4.58-.42-8.91-1.9-11.49-3.9l2.73-6.06a20.29,20.29,0,0,0,8.76,3.42,17.8,17.8,0,0,0,2.72.21,11.3,11.3,0,0,0,4.51-.74,3.17,3.17,0,0,0,2.2-3c0-1.33-.85-2.2-2.2-2.86-1.79-.88-4.48-1.37-7.23-2.05-5.27-1.3-10.79-3.3-10.79-10.05,0-5.08,3.52-9.42,10.79-10.54a24.57,24.57,0,0,1,3.87-.29,27.06,27.06,0,0,1,3.36.21,21.3,21.3,0,0,1,8.71,2.87l-2.48,6.11a20.83,20.83,0,0,0-6.23-2.38,16.8,16.8,0,0,0-3.41-.35,11.66,11.66,0,0,0-3.82.54c-2,.69-2.79,2-2.79,3.43s1.1,2.4,2.79,3.07a69.21,69.21,0,0,0,7.23,1.9C409.13,282.26,414.25,284.34,414.25,290.76Z" style="fill: #90CAF9; transform-origin: 399.79px 283.555px;" id="elzvfybafo36" class="animable"></path><path d="M404.05,261.65v4.13a27.06,27.06,0,0,0-3.36-.21,24.57,24.57,0,0,0-3.87.29v-4.21Z" style="fill: #90CAF9; transform-origin: 400.435px 263.755px;" id="el2dphuzr91on" class="animable"></path><path d="M404.05,301.15v3.91h-7.23v-3.64a26.37,26.37,0,0,0,2.67.13A24.65,24.65,0,0,0,404.05,301.15Z" style="fill: #90CAF9; transform-origin: 400.435px 303.105px;" id="eluylgvlg6x4" class="animable"></path><g id="elf1bcdvl672d"><path d="M404.05,261.65v4.13a27.06,27.06,0,0,0-3.36-.21,24.57,24.57,0,0,0-3.87.29v-4.21Z" style="fill: rgb(255, 255, 255); opacity: 0.3; transform-origin: 400.435px 263.755px;" class="animable" id="elezcc7zvsfla"></path></g><g id="elu8brihb0qu9"><path d="M404.05,301.15v3.91h-7.23v-3.64a26.37,26.37,0,0,0,2.67.13A24.65,24.65,0,0,0,404.05,301.15Z" style="fill: rgb(255, 255, 255); opacity: 0.3; transform-origin: 400.435px 303.105px;" class="animable" id="el1opdgzsc7mz"></path></g><polygon points="399.61 257.91 316.9 210.93 281.01 210.93 281.01 209.93 317.17 209.93 317.28 209.99 400.11 257.04 399.61 257.91" style="fill: #90CAF9; transform-origin: 340.56px 233.92px;" id="elvapo169jnk" class="animable"></polygon></g><g id="freepik--Character--inject-6" class="animable" style="transform-origin: 244.36px 239.66px;"><g id="freepik--group--inject-6" class="animable" style="transform-origin: 244.36px 239.66px;"><polygon points="253.5 386.95 261.57 388.49 266.16 364.8 255.75 363.56 253.5 386.95" style="fill: rgb(255, 194, 188); transform-origin: 259.83px 376.025px;" id="el9faw46uh16" class="animable"></polygon><path d="M263.25,387l-10.71-3.33a.9.9,0,0,0-1.07.45l-4.79,8.31a1.54,1.54,0,0,0,.44,2,1.27,1.27,0,0,0,.37.18c3.77,1.2,5.56,1.71,10.26,3.19,2.91.9,11.06,5,15.23,5s5-4.35,3.27-4.76c-7.54-1.85-10.07-7.07-11.69-10A2.32,2.32,0,0,0,263.25,387Z" style="fill: rgb(38, 50, 56); transform-origin: 261.791px 393.215px;" id="el4skw7r55wel" class="animable"></path><g id="eluqhtji0nua"><polygon points="266.16 364.81 263.9 376.44 254.59 375.68 255.75 363.56 266.16 364.81" style="opacity: 0.2; isolation: isolate; transform-origin: 260.375px 370px;" class="animable" id="elx78r8bz0rak"></polygon></g><path d="M259.42,181.19c4.09.68,7.25-.86,9.45,2.71.73,1.19,1.71,6.54,2.11,7.95,5,17.56,15.4,76.32,12.43,109.07-2.65,29.18-14.64,69.61-14.64,69.61l-16.16,1.53s6.12-61.93,6.79-86.06c1.15-41.3-16.3-107.53-16.3-107.53Z" style="fill: rgb(38, 50, 56); transform-origin: 263.517px 275.265px;" id="elm7vb9s3y4l" class="animable"></path><polygon points="271.37 373.62 251.16 372.69 251.8 364.54 271.96 366.31 271.37 373.62" style="fill: #90CAF9; transform-origin: 261.56px 369.08px;" id="eliqvy1xmeba" class="animable"></polygon><g id="elsa2gawk2vtl"><path d="M255.08,200.65l-4.28,11.58c3.19,15.49,8.34,42.7,8.65,70.41C265.42,260.34,258,211.37,255.08,200.65Z" style="opacity: 0.2; isolation: isolate; transform-origin: 256.255px 241.645px;" class="animable" id="ell8fdvg4nej"></path></g><polygon points="222.02 382.63 231.24 384.39 235.55 361.18 225.52 359.61 222.02 382.63" style="fill: rgb(255, 194, 188); transform-origin: 228.785px 372px;" id="el400b5wntoa8" class="animable"></polygon><path d="M231.39,383.5l-9.33-5.26a.74.74,0,0,0-1,.23l-5.7,8.1a1.66,1.66,0,0,0,.39,2.22l.16.1c3.27,1.78,4.95,2.46,9,4.79,2.54,1.47,8.88,5.86,12.37,7.82s6.27-2.43,5-3.56c-5.79-5.19-8.56-9.9-9.77-13.1A2.63,2.63,0,0,0,231.39,383.5Z" style="fill: rgb(38, 50, 56); transform-origin: 228.844px 390.066px;" id="eldcj6bf3n41q" class="animable"></path><g id="elvbslng75th"><polygon points="225.46 359.86 235.44 361.77 233.25 373.56 223.65 371.74 225.46 359.86" style="opacity: 0.2; isolation: isolate; transform-origin: 229.545px 366.71px;" class="animable" id="elrl5uol4t3u"></polygon></g><path d="M252.74,177.7s11.51,40.63,2,107.3A392.84,392.84,0,0,1,235,369.56L223.13,364s3.15-52.87,5.62-74.29c5.07-43.87-2.53-80-3.55-98.84a10.59,10.59,0,0,1,9.09-11.21Z" style="fill: rgb(38, 50, 56); transform-origin: 240.817px 273.63px;" id="eltq6we7erutr" class="animable"></path><polygon points="237.33 371.23 220.3 367.86 220.67 360.92 239.71 364.54 237.33 371.23" style="fill: #90CAF9; transform-origin: 230.005px 366.075px;" id="elx7gp0p9x6m" class="animable"></polygon><path d="M235.4,387.7a1.37,1.37,0,0,0,.63-.63.83.83,0,0,0,.06-.78c-.54-1.12-3.9-1.5-4.28-1.55a.18.18,0,0,0-.18.08.2.2,0,0,0,0,.22c.76,1,2.25,2.78,3.42,2.7A1,1,0,0,0,235.4,387.7Zm-3.16-2.47c1.15.16,3.2.59,3.53,1.28a.42.42,0,0,1,0,.39.91.91,0,0,1-.7.53c-.69,0-1.71-.81-2.81-2.24Z" style="fill: #90CAF9; transform-origin: 233.879px 386.24px;" id="ely9dj7y0sete" class="animable"></path><path d="M234.73,384.65a2.15,2.15,0,0,0,1.12-.88.82.82,0,0,0-.19-1,1.13,1.13,0,0,0-.89-.37c-1.35.07-3.05,2.29-3.12,2.38a.22.22,0,0,0,0,.19.18.18,0,0,0,.14.14A6.45,6.45,0,0,0,234.73,384.65Zm-.44-1.69a1.48,1.48,0,0,1,.5-.13.74.74,0,0,1,.61.25.46.46,0,0,1,.12.51c-.34.69-2.26,1.21-3.35,1.19A7.08,7.08,0,0,1,234.29,383Z" style="fill: #90CAF9; transform-origin: 233.786px 383.764px;" id="el1vzddxagq4h" class="animable"></path><path d="M267.5,390.41a3.41,3.41,0,0,0,2.25.1,1.32,1.32,0,0,0,.82-.9.67.67,0,0,0-.07-.67c-.78-1-5.18-.29-5.69-.21a.18.18,0,0,0-.15.16.2.2,0,0,0,.09.21A14.75,14.75,0,0,0,267.5,390.41Zm2.25-1.47a.79.79,0,0,1,.4.22.3.3,0,0,1,0,.29,1,1,0,0,1-.61.67c-1.07.43-3.12-.53-4.2-1.11a13.14,13.14,0,0,1,4.38,0Z" style="fill: #90CAF9; transform-origin: 267.642px 389.533px;" id="el0sdzoxy1fvva" class="animable"></path><path d="M264.72,389.12h.08c1.3-.16,4.32-1.49,4.48-2.57,0-.23-.06-.56-.56-.78-2-.95-4,2.88-4.15,3.06a.24.24,0,0,0,0,.2A.27.27,0,0,0,264.72,389.12Zm3.72-3,.15.06c.35.16.33.31.31.36-.09.69-2.3,1.86-3.76,2.17.52-.87,1.95-3,3.3-2.59Z" style="fill: #90CAF9; transform-origin: 266.914px 387.369px;" id="elgbudd5gz1zj" class="animable"></path><path d="M335.2,142.19s.76-5.59,1.44-5.39,5.95-.82,8.32-1.27a4.29,4.29,0,0,1,2.16.17l5.36,1.86a1.35,1.35,0,0,1,.86,1.67l-1,3.2a1.37,1.37,0,0,1-1.12,1l-6.2.83a4.19,4.19,0,0,1-1.54-.08Z" style="fill: rgb(255, 194, 188); transform-origin: 344.299px 139.88px;" id="elzoyed5u4yoq" class="animable"></path><path d="M332.7,136.6l7.39-2.75s3.8,3.17,2.54,6.52-3.05,3.69-3.05,3.69-3,2.48-7.22,0S332.7,136.6,332.7,136.6Z" style="fill: #90CAF9; transform-origin: 336.727px 139.506px;" id="elyhm8ekvxza" class="animable"></path><path d="M267.13,122.77c7.23,2.31,25.72,8.48,34.44,11.85,4,1.56,20.37.56,27.46,1a21,21,0,0,1,5.28,1.63l-1,5.4s-1,2.46-3.23,2.9c-8.32,1.65-28.95,3.29-33.38,2.18-12.87-3.22-34.35-9-35.95-12.28C258.32,130.6,261.57,121,267.13,122.77Z" style="fill: #90CAF9; transform-origin: 297.122px 135.324px;" id="el71um3tmbopc" class="animable"></path><g id="elw7kv0m7zyga"><path d="M283.16,144.16l-11.9-3.84a46.64,46.64,0,0,0-.24-4.77C275.71,140.66,283.16,144.16,283.16,144.16Z" style="opacity: 0.2; transform-origin: 277.09px 139.855px;" class="animable" id="elvpv8415375"></path></g><path d="M153.52,152.73s-.76-5.59-1.44-5.39-6-.82-8.32-1.27a4.18,4.18,0,0,0-2.16.17l-5.36,1.86a1.35,1.35,0,0,0-.86,1.67l1,3.2a1.35,1.35,0,0,0,1.12.95l6.21.84a4.15,4.15,0,0,0,1.53-.08Z" style="fill: rgb(255, 194, 188); transform-origin: 144.421px 150.398px;" id="elv7dhodoblgj" class="animable"></path><path d="M159.05,145.39l-8.85,0S147,147.8,148.67,151a8.27,8.27,0,0,0,4,4l6.61-1.68C163.65,148.9,159.05,145.39,159.05,145.39Z" style="fill: #90CAF9; transform-origin: 154.676px 150.195px;" id="elheg65fx5em4" class="animable"></path><path d="M229.22,135.32a5.73,5.73,0,0,1-2.12,2.14,38.48,38.48,0,0,1-3.83,2.33h0c-7.28,4-19.6,9.06-28.07,12.42-4.24,1.68-24.91,2.76-33.37,2.22-2.25-.14-3.58-2.45-3.58-2.45l-1.73-5.21a20.87,20.87,0,0,1,5-2.31c7-1.38,23.3-2.53,27.08-4.6,8.21-4.49,25.73-13,32.59-16.27C226.48,121.11,231,130.19,229.22,135.32Z" style="fill: #90CAF9; transform-origin: 193.067px 138.87px;" id="el9vksqefuy9n" class="animable"></path><path d="M272,184.85a5,5,0,0,1-.78,2.8l-.41.61-.31.49-.05,0-46.22.3a1.89,1.89,0,0,1-.27-.2c-3.26-2.51-3-7.05-1.35-10.81,1.42-3.18,1.83-9.26,1.76-16.38s-.64-15.33-1.16-22.77c-.48-6.84-.36-15.79-.36-15.79a0,0,0,0,1,0-.07,113.66,113.66,0,0,1,16.15-2,122.23,122.23,0,0,1,17.33.17c5.4.64,5.48.37,10.78,1.55,0,0,0,0,0,0,.19.42,3,4.63,3.85,12.75a46.64,46.64,0,0,1,.24,4.77c0,.65,0,1.32,0,2-.14,3.64-.2,12.62-.63,31.57a19.17,19.17,0,0,0,.35,6A18.54,18.54,0,0,1,272,184.85Z" style="fill: #90CAF9; transform-origin: 246.711px 154.926px;" id="el9awbtv8vdvd" class="animable"></path><g id="el51hy4rx9xnt"><path d="M260.1,121.62,252,136.15s-16.62-14.83-16.92-14.83l3.93-.23,3.6,3,8.58,7.07,5.15-9.86Z" style="opacity: 0.2; transform-origin: 247.59px 128.62px;" class="animable" id="els8vq1e0jxb"></path></g><g id="elkhnimwu8s9g"><path d="M224.14,154.29c-.07-2.46-.59-10.69-.88-14.49h0a38.48,38.48,0,0,0,3.83-2.33C227.9,140.14,224.2,156.75,224.14,154.29Z" style="opacity: 0.2; transform-origin: 225.233px 146.004px;" class="animable" id="el20mddsrrk9h"></path></g><path d="M256.36,121.26l-5.15,9.86-8.58-7.07a9,9,0,0,0,13.73-2.79Z" style="fill: rgb(38, 50, 56); transform-origin: 249.495px 126.19px;" id="el56l0nht7cd7" class="animable"></path><path d="M256.36,121.26a9,9,0,0,1-13.73,2.79l-3.6-3c3.94-3.69,2.95-13.91,1.91-19.51l10.57,5.77C252.1,113.53,250.19,119.7,256.36,121.26Z" style="fill: rgb(255, 194, 188); transform-origin: 247.695px 113.829px;" id="elkmi9z4g9jxe" class="animable"></path><g id="elgig52oitxn"><path d="M243.9,111.09s2.12,8.6,8.84,7.7c0,0-.37.2-1-3.79a32.19,32.19,0,0,1-.22-7.65S244.35,107.55,243.9,111.09Z" style="opacity: 0.2; transform-origin: 248.32px 113.103px;" class="animable" id="elz1ivgeheh6"></path></g><path d="M236.32,98.3c3.79,8.54,5.2,12.23,11.28,15.06,9.14,4.27,18.78-2.24,17.63-11.72-1-8.55-7.05-21.06-16.89-21.36a12.75,12.75,0,0,0-13.16,12.31A12.62,12.62,0,0,0,236.32,98.3Z" style="fill: rgb(255, 194, 188); transform-origin: 250.248px 97.485px;" id="elxblvb4kjnu" class="animable"></path><path d="M235.45,106.88c15.42-1.68,4.72-18.23,17.79-25.35-3.4-6-13-6.73-23.51,1.28C220.79,89.62,235.45,106.88,235.45,106.88Z" style="fill: rgb(38, 50, 56); transform-origin: 240.04px 91.8971px;" id="el30pit9ozfyd" class="animable"></path><path d="M242.52,79.37s16.8,5,19.32,11.48c0,0,.65-13.53-5.32-13.88S239.61,75.41,242.52,79.37Z" style="fill: rgb(38, 50, 56); transform-origin: 251.949px 83.6853px;" id="elbhklgm5pr4b" class="animable"></path><path d="M236.29,107.83a6.88,6.88,0,0,0,5,1.57c2.37-.23,2.71-2.56,1.33-4.36-1.23-1.63-4-3.42-6-2.35a3.07,3.07,0,0,0-1.14,4.19A3.18,3.18,0,0,0,236.29,107.83Z" style="fill: rgb(255, 194, 188); transform-origin: 239.253px 105.896px;" id="eli9w1es2oet" class="animable"></path><path d="M250.47,95.82c.26.7.86,1.13,1.32,1s.63-.89.36-1.6-.85-1.13-1.31-1S250.21,95.11,250.47,95.82Z" style="fill: rgb(38, 50, 56); transform-origin: 251.313px 95.5198px;" id="elx7yhta0o71b" class="animable"></path><path d="M258.5,92.83c.27.71.85,1.13,1.33,1s.63-.88.35-1.6-.84-1.13-1.31-1S258.2,92.11,258.5,92.83Z" style="fill: rgb(38, 50, 56); transform-origin: 259.339px 92.5298px;" id="elc77puwc1qpw" class="animable"></path><path d="M256.83,94.84a20.23,20.23,0,0,0,4.23,3.6,3.27,3.27,0,0,1-2.36,1.41Z" style="fill: rgb(236, 131, 126); transform-origin: 258.945px 97.345px;" id="el21mgcx46ppo" class="animable"></path><path d="M260.76,103.12a.18.18,0,0,0,.06-.26h0a.2.2,0,0,0-.26,0,7.47,7.47,0,0,1-5.15,1.32.19.19,0,0,0-.25.05.17.17,0,0,0,0,.24h0A7.69,7.69,0,0,0,260.76,103.12Z" style="fill: rgb(38, 50, 56); transform-origin: 257.981px 103.683px;" id="elqn1n8rhcw4m" class="animable"></path><path d="M247.61,90.66a.31.31,0,0,0,.3-.06,3.09,3.09,0,0,1,2.74-.72.36.36,0,0,0,.41-.22.3.3,0,0,0-.15-.41h0a3.7,3.7,0,0,0-3.31.84.36.36,0,0,0-.11.46A.25.25,0,0,0,247.61,90.66Z" style="fill: rgb(38, 50, 56); transform-origin: 249.27px 89.9136px;" id="elpfed2j2qeqi" class="animable"></path><path d="M260,87.1a.34.34,0,0,0,.21-.29.36.36,0,0,0-.33-.4h0a4.28,4.28,0,0,0-3.71,1.44.36.36,0,0,0,0,.5l0,0a.36.36,0,0,0,.51-.06h0a3.61,3.61,0,0,1,3.08-1.16A.33.33,0,0,0,260,87.1Z" style="fill: rgb(38, 50, 56); transform-origin: 258.141px 87.406px;" id="elihdmplu0sni" class="animable"></path></g><path d="M271.23,192.21c-.36-.24-34,1.34-43.86,1.52-3.43.32-3.71-4.25-2.93-4.76l45.55-.24.05,0,.33-.49a15.47,15.47,0,0,1,1.26,2.43A1.48,1.48,0,0,1,271.23,192.21Z" style="fill: #90CAF9; transform-origin: 247.891px 190.993px;" id="elohi61gdluj8" class="animable"></path><g id="el9dqlkihfnz7"><path d="M271.23,192.21c-.36-.24-34,1.34-43.86,1.52-3.43.32-3.71-4.25-2.93-4.76l45.55-.24.05,0,.33-.49a15.47,15.47,0,0,1,1.26,2.43A1.48,1.48,0,0,1,271.23,192.21Z" style="opacity: 0.2; transform-origin: 247.891px 190.993px;" class="animable" id="elqq15hizuqd"></path></g><path d="M290,333.81h-.06a.49.49,0,0,1-.43-.56l1-8.24a.49.49,0,0,1,.56-.44.5.5,0,0,1,.43.56l-1,8.24A.5.5,0,0,1,290,333.81Z" style="fill: #90CAF9; transform-origin: 290.504px 329.187px;" id="el35log96ynoy" class="animable"></path><path d="M292,317.32h-.06a.5.5,0,0,1-.44-.56l.7-5.68A260.56,260.56,0,0,0,293.93,269a.49.49,0,0,1,.47-.52.5.5,0,0,1,.52.48,260.21,260.21,0,0,1-1.73,42.23l-.69,5.68A.51.51,0,0,1,292,317.32Z" style="fill: #90CAF9; transform-origin: 293.314px 292.9px;" id="elieywg5goak" class="animable"></path><path d="M219.45,296.07l-1-.14c0-.16,2.17-15.45,2.52-27.33A233.47,233.47,0,0,0,219,230.74l1-.13a235.38,235.38,0,0,1,2,38C221.63,280.56,219.47,295.91,219.45,296.07Z" style="fill: #90CAF9; transform-origin: 220.272px 263.34px;" id="el4uvury7nd6c" class="animable"></path><path d="M219,230.74c-.55-4.11-1.21-8.17-2-12.07l1-.19c.76,3.92,1.43,8,2,12.13Z" style="fill: #90CAF9; transform-origin: 218.5px 224.61px;" id="el4gd95xayohf" class="animable"></path><path d="M216,213.44c-.64-2.84-1.44-6.18-2.5-9.5l1-.31c1.07,3.36,1.87,6.73,2.51,9.59Z" style="fill: #90CAF9; transform-origin: 215.255px 208.535px;" id="el9b64mkr89hq" class="animable"></path></g><defs>     <filter id="active" height="200%">         <feMorphology in="SourceAlpha" result="DILATED" operator="dilate" radius="2"></feMorphology>                <feFlood flood-color="#32DFEC" flood-opacity="1" result="PINK"></feFlood>        <feComposite in="PINK" in2="DILATED" operator="in" result="OUTLINE"></feComposite>        <feMerge>            <feMergeNode in="OUTLINE"></feMergeNode>            <feMergeNode in="SourceGraphic"></feMergeNode>        </feMerge>    </filter>    <filter id="hover" height="200%">        <feMorphology in="SourceAlpha" result="DILATED" operator="dilate" radius="2"></feMorphology>                <feFlood flood-color="#ff0000" flood-opacity="0.5" result="PINK"></feFlood>        <feComposite in="PINK" in2="DILATED" operator="in" result="OUTLINE"></feComposite>        <feMerge>            <feMergeNode in="OUTLINE"></feMergeNode>            <feMergeNode in="SourceGraphic"></feMergeNode>        </feMerge>            <feColorMatrix type="matrix" values="0   0   0   0   0                0   1   0   0   0                0   0   0   0   0                0   0   0   1   0 "></feColorMatrix>    </filter></defs></svg>