<svg class="animated" id="freepik_stories-cute-alien" xmlns="http://www.w3.org/2000/svg" viewBox="0 0 500 500" version="1.1" xmlns:xlink="http://www.w3.org/1999/xlink" xmlns:svgjs="http://svgjs.com/svgjs"><style>svg#freepik_stories-cute-alien:not(.animated) .animable {opacity: 0;}svg#freepik_stories-cute-alien.animated #freepik--background-simple--inject-27 {animation: 6s Infinite  linear spin;animation-delay: 0s;}svg#freepik_stories-cute-alien.animated #freepik--Spaceship--inject-27 {animation: 3s Infinite  linear floating;animation-delay: 0s;}         @keyframes spin {             from {                 transform: rotate(0);               }               to {                 transform: rotate(360deg);               }         }                 @keyframes floating {                0% {                    opacity: 1;                    transform: translateY(0px);                }                50% {                    transform: translateY(-10px);                }                100% {                    opacity: 1;                    transform: translateY(0px);                }            }        </style><g id="freepik--background-simple--inject-27" class="animable" style="transform-origin: 257.203px 225.972px;"><path d="M76.77,135.74l1.34-3.9c11.26-32.92,39.3-57.41,73.37-62.65a90.34,90.34,0,0,1,13.25-1c32-.16,63.64,17.13,81.14,44.3,10.3,16,16.5,35.63,31.82,46.75,19.95,14.47,47.25,9.08,71,3.1s51.06-11.3,70.94,3.26c12.45,9.11,19.14,24.5,21.66,39.81,6.65,40.55-13.43,82.5-45,108.09s-73.08,36.36-113.67,37c-56.86.95-115.25-17.85-156.58-57.59S62.88,191.45,76.77,135.74Z" style="fill: rgb(245, 245, 245); transform-origin: 257.577px 209.362px;" id="elai1da6fy71o" class="animable"></path><g id="elg65t6dingqr"><circle cx="106" cy="349.6" r="26.47" style="fill: rgb(245, 245, 245); transform-origin: 106px 349.6px; transform: rotate(-20.84deg);" class="animable"></circle></g></g><g id="freepik--Floor--inject-27" class="animable" style="transform-origin: 248.865px 446.07px;"><path d="M487.57,483.6s-.38-.23-1.11-.71l-3.21-2.12L478,477.3l-3.33-2.21c-1.2-.77-2.5-1.55-3.87-2.39l-9.12-5.59c-3.37-2-7.11-4-11.08-6.26s-8.35-4.42-12.94-6.81-9.57-4.67-14.77-7.11l-4-1.84c-1.33-.6-2.72-1.15-4.1-1.74l-8.5-3.58c-2.87-1.26-5.9-2.3-8.94-3.48s-6.14-2.35-9.33-3.47l-9.77-3.27c-1.66-.55-3.32-1.14-5-1.66l-5.14-1.5c-3.46-1-6.95-2.08-10.52-3.05l-10.91-2.76c-3.66-1-7.45-1.7-11.25-2.54s-7.63-1.7-11.56-2.31l-11.88-2.07L299.89,412a434.71,434.71,0,0,0-51-3.23,437,437,0,0,0-51.06,3.27l-12.17,1.66-11.88,2.07c-3.93.63-7.76,1.54-11.57,2.33s-7.58,1.55-11.24,2.55L140,423.43c-3.57,1-7.06,2.05-10.52,3.05L124.36,428c-1.69.51-3.35,1.11-5,1.65l-9.77,3.28c-3.18,1.13-6.27,2.35-9.33,3.49s-6.07,2.21-8.94,3.48l-8.49,3.58c-1.38.59-2.77,1.14-4.1,1.75l-4,1.85c-5.2,2.44-10.21,4.67-14.77,7.11S51,458.7,47.06,461s-7.7,4.29-11.07,6.27l-9.11,5.6c-1.37.85-2.68,1.62-3.87,2.39l-3.32,2.22L14.48,481l-3.21,2.13-1.11.71s.36-.27,1.08-.76l3.18-2.17,5.18-3.51,3.31-2.24c1.19-.78,2.5-1.56,3.86-2.41l9.1-5.64c3.36-2,7.09-4.05,11.05-6.31s8.34-4.46,12.93-6.86,9.56-4.7,14.76-7.16l4-1.85c1.34-.61,2.72-1.17,4.11-1.76l8.49-3.6c2.87-1.28,5.9-2.32,8.94-3.5s6.15-2.37,9.34-3.51l9.77-3.29c1.66-.55,3.32-1.14,5-1.67l5.14-1.52c3.46-1,6.95-2.09,10.53-3.06l10.91-2.79c3.67-1,7.46-1.71,11.26-2.55s7.65-1.72,11.58-2.34l11.89-2.09,12.19-1.67a435.65,435.65,0,0,1,51.12-3.28A435.71,435.71,0,0,1,300,411.5l12.19,1.66L324,415.24c3.93.62,7.76,1.53,11.58,2.33s7.58,1.54,11.26,2.55l10.91,2.77c3.58,1,7.07,2.06,10.53,3.06l5.14,1.51c1.7.52,3.36,1.12,5,1.66l9.78,3.29c3.18,1.13,6.27,2.35,9.33,3.49s6.07,2.23,8.95,3.5L415,443c1.39.6,2.77,1.15,4.11,1.76l3.95,1.85c5.2,2.45,10.21,4.69,14.77,7.14s9,4.53,12.93,6.85,7.7,4.31,11.06,6.31l9.11,5.63c1.36.85,2.66,1.63,3.86,2.41l3.31,2.23,5.19,3.51,3.18,2.17C487.21,483.34,487.57,483.6,487.57,483.6Z" style="fill: rgb(38, 50, 56); transform-origin: 248.865px 446.07px;" id="elqgym2ob9fb8" class="animable"></path></g><g id="freepik--Plant--inject-27" class="animable" style="transform-origin: 84.5491px 422.525px;"><path d="M73.77,397.78a10.84,10.84,0,0,1,7.33,3.56,16.9,16.9,0,0,1,3.68,7.05c1.37,4.94.45,10.75-1.11,15.64-5.72-1.95-9.2-7.67-10.77-10.67-2.48-4.75-3.87-14.73.87-15.58" style="fill: rgb(0, 255, 136); transform-origin: 78.036px 410.905px;" id="elbcra7t07i9" class="animable"></path><path d="M91.87,430.07a7.89,7.89,0,0,1-.35-8.41,11.85,11.85,0,0,1,7.26-5.33,5.38,5.38,0,0,1,4.23.22,3.47,3.47,0,0,1,1.45,3.37,6.91,6.91,0,0,1-1.68,3.44c-2.82,3.49-6.23,6.38-10.91,6.71" style="fill: rgb(0, 255, 136); transform-origin: 97.4862px 423.034px;" id="elrvl3sxwl61" class="animable"></path><path d="M92.35,446.53a4.55,4.55,0,0,1-.25-1l-.57-2.81a27.64,27.64,0,0,1-.54-9.44,17.35,17.35,0,0,1,3.85-8.71,12.57,12.57,0,0,1,2.19-2c.28-.21.53-.35.69-.45l.25-.13a21.09,21.09,0,0,0-2.91,2.77,17.79,17.79,0,0,0-3.67,8.6,29.47,29.47,0,0,0,.42,9.34c.2,1.2.35,2.16.44,2.84A6.14,6.14,0,0,1,92.35,446.53Z" style="fill: rgb(38, 50, 56); transform-origin: 94.3891px 434.26px;" id="el3oz633m1lkm" class="animable"></path><path d="M75.55,405.29a2.1,2.1,0,0,1,.23.41l.58,1.19c.5,1,1.2,2.55,2,4.42,1.69,3.75,4,8.95,6.31,14.75s4.36,11.1,5.76,14.95c.69,1.92,1.24,3.48,1.61,4.57.17.51.31.93.41,1.25a2.57,2.57,0,0,1,.12.44,1.89,1.89,0,0,1-.19-.42l-.49-1.23c-.42-1.11-1-2.65-1.73-4.53-1.46-3.83-3.5-9.1-5.86-14.9s-4.57-11-6.2-14.78L76.22,407l-.51-1.22A1.89,1.89,0,0,1,75.55,405.29Z" style="fill: rgb(38, 50, 56); transform-origin: 84.06px 426.28px;" id="elytq4fv37hmt" class="animable"></path><path d="M85.64,435.59A21.26,21.26,0,0,0,69.38,426c-1.7-.13-3.74.12-4.51,1.53s.23,3.1,1.37,4.27A19,19,0,0,0,85.7,436" style="fill: rgb(0, 255, 136); transform-origin: 75.1494px 431.525px;" id="el0npog0azm4wb" class="animable"></path><path d="M71.92,430.25a5.31,5.31,0,0,1,1.06,0,12.08,12.08,0,0,1,1.24.15c.47.08,1,.14,1.62.29a18.19,18.19,0,0,1,1.93.52,20.06,20.06,0,0,1,2.14.78,24,24,0,0,1,4.52,2.53,21.94,21.94,0,0,1,3.71,3.49,17.38,17.38,0,0,1,1.31,1.76,16.62,16.62,0,0,1,1,1.64,14.23,14.23,0,0,1,.66,1.41,9.87,9.87,0,0,1,.41,1.09,5.19,5.19,0,0,1,.27,1c-.09,0-.48-1.34-1.59-3.34a16.37,16.37,0,0,0-1-1.59,18.69,18.69,0,0,0-1.31-1.72,22.53,22.53,0,0,0-3.68-3.4,24.35,24.35,0,0,0-4.42-2.52,20.67,20.67,0,0,0-2.1-.8,18.2,18.2,0,0,0-1.89-.55C73.42,430.42,71.91,430.33,71.92,430.25Z" style="fill: rgb(38, 50, 56); transform-origin: 81.855px 437.567px;" id="el9z3nnft6qnr" class="animable"></path></g><g id="freepik--Spaceship--inject-27" class="animable" style="transform-origin: 385.91px 115.048px;"><path d="M396.48,81.36a35.09,35.09,0,0,0-42.35,25.9l68.26,16.45A35.11,35.11,0,0,0,396.48,81.36Z" style="fill: rgb(224, 224, 224); transform-origin: 388.748px 102.045px;" id="el6tl4o5oua9h" class="animable"></path><path d="M396.48,81.36a1,1,0,0,1,.26,0l.75.2c.66.2,1.66.42,2.9.87a35.42,35.42,0,0,1,9.9,5.53,34.81,34.81,0,0,1,10.48,13.8,35.34,35.34,0,0,1,1.85,22l-.05.23-.24,0-34.13-8.21-34.13-8.25-.23,0,.06-.23A35.29,35.29,0,0,1,365.55,88.5a35.07,35.07,0,0,1,26.95-7.92c1.31.16,2.3.43,3,.55l.76.16c.17,0,.26.06.25.07l-.26,0-.77-.13c-.67-.09-1.66-.33-3-.47a36,36,0,0,0-11.25.54,35.11,35.11,0,0,0-26.87,26.05l-.17-.29,34.13,8.2,34.12,8.25-.29.18a35.07,35.07,0,0,0-12-35.43,36.4,36.4,0,0,0-9.78-5.61c-1.22-.47-2.21-.7-2.86-.93l-.74-.24Z" style="fill: rgb(38, 50, 56); transform-origin: 388.711px 102.146px;" id="elp52r4o0uxm8" class="animable"></path><g id="elux5o04z04qb"><ellipse cx="385.91" cy="118.88" rx="16.41" ry="63.86" style="fill: rgb(0, 255, 136); transform-origin: 385.91px 118.88px; transform: rotate(-76.45deg);" class="animable"></ellipse></g><g id="el3lzr3oxn94c"><g style="opacity: 0.3; transform-origin: 385.271px 121.505px;" class="animable"><path d="M437.11,134c-1.77,7.36-26.42,7.73-55.05.83s-50.4-18.46-48.63-25.82,26.42-7.73,55.05-.83S438.89,126.65,437.11,134Z" id="elgihqj2rxpp" class="animable" style="transform-origin: 385.271px 121.505px;"></path></g></g><path d="M406.73,130.45c-.77,3.16-11.37,3.32-23.7.35s-21.69-7.94-20.92-11.11,11.37-3.32,23.69-.35S407.49,127.28,406.73,130.45Z" style="fill: rgb(0, 255, 136); transform-origin: 384.419px 125.068px;" id="eln5gtuy375bq" class="animable"></path><g id="elybdbls48b5c"><g style="opacity: 0.7; transform-origin: 384.419px 125.068px;" class="animable"><path d="M406.73,130.45c-.77,3.16-11.37,3.32-23.7.35s-21.69-7.94-20.92-11.11,11.37-3.32,23.69-.35S407.49,127.28,406.73,130.45Z" style="fill: rgb(255, 255, 255); transform-origin: 384.419px 125.068px;" id="el4mo240i8yer" class="animable"></path></g></g><g id="elwmbjs0azg4"><g style="opacity: 0.5; transform-origin: 379.241px 91.5507px;" class="animable"><path d="M392.94,86.65a2.94,2.94,0,0,0-2.68-3.13A30.67,30.67,0,0,0,366,92.32c-3.45,3.16,13.09,6.26,23,7.36A2.94,2.94,0,0,0,392.23,97Q392.57,91.82,392.94,86.65Z" style="fill: rgb(255, 255, 255); transform-origin: 379.241px 91.5507px;" id="elwpyzifrnsyb" class="animable"></path></g></g></g><g id="freepik--Aliens--inject-27" class="animable" style="transform-origin: 249.255px 270.094px;"><path d="M220,401.92a16.75,16.75,0,0,0,1.82.13l35.66.56s43,15.2,48-5.13c4.8-19.19,6.46-31.29,4.8-51.9S292.48,313,291.48,312.75L278.16,299c-9.66,8.59-52.28,10.22-52.28,10.22l-10,36.48a127.83,127.83,0,0,0-2.79,55.06c0,.16.06.32.08.48h0Z" style="fill: rgb(69, 90, 100); transform-origin: 261.111px 353.534px;" id="elshbtpfcxpa" class="animable"></path><path d="M212.89,393.45s1,30.34,3.33,40.93,6,12,18,13.74,29.69.12,33.35-3.89-2-9-7-11.28l.33-32.34S233.2,378,212.89,393.45Z" style="fill: rgb(69, 90, 100); transform-origin: 240.814px 418.431px;" id="el3rtidjd7m3p" class="animable"></path><path d="M306.55,393l-8.08,35.94s9.82,8.15,8,12.67c-2.38,5.82-19.9,6.65-29.25,5.76a43.68,43.68,0,0,1-10.25-2.22l-3.05-1-6-10,1.33-36.92Z" style="fill: rgb(69, 90, 100); transform-origin: 282.307px 420.337px;" id="eluy6vgck03f9" class="animable"></path><path d="M285.22,399.7s-.11.05-.34.12l-1,.25-3.9.9L266,404.05l.18-.19c-.74,5.41-1.62,11.74-2.55,18.48-.52,3.72-1,7.31-1.5,10.64l-.14-.26a27.94,27.94,0,0,1,4.94,3.09A8.87,8.87,0,0,1,270.2,440a3.4,3.4,0,0,1-.33,2.49,5.58,5.58,0,0,1-1.58,1.72,16,16,0,0,1-3.64,1.84,39.27,39.27,0,0,1-5.55,1.51l-1.51.27a2.37,2.37,0,0,1-.53.06l.51-.15,1.49-.35a43,43,0,0,0,5.48-1.64,15.28,15.28,0,0,0,3.52-1.84,5.36,5.36,0,0,0,1.46-1.61,3,3,0,0,0,.26-2.2,8.48,8.48,0,0,0-3.13-4,28.23,28.23,0,0,0-4.86-3l-.16-.08,0-.18c.46-3.33,1-6.92,1.48-10.65.95-6.73,1.85-13.05,2.61-18.46l0-.16.16,0,14-2.9,3.93-.78,1-.18Z" style="fill: rgb(38, 50, 56); transform-origin: 271.14px 423.795px;" id="eltkc5l7anzmb" class="animable"></path><path d="M313.9,156.79c-27.19-47.68-68.52-54-112.75-48.57l3.11-.34c-39.32,3.43-76.63,36.58-90.21,73.64S110.19,263.1,138,291.12c18.3,18.44,43,29.51,68.39,35.17,20.17,4.51,41.62,5.77,61.25-.71,31.61-10.44,44.92-30.59,54.91-62.34C333.27,229.11,332.75,189.85,313.9,156.79Z" style="fill: rgb(69, 90, 100); transform-origin: 218.781px 218.329px;" id="els3fmssnv9qp" class="animable"></path><path d="M273.65,252.81c-19.12-6.47-29.63-32.44-24-55.7s26.24-39.27,45.37-32.8,29.49,33,23.88,56.25S292.78,259.29,273.65,252.81Z" style="fill: rgb(255, 255, 255); transform-origin: 284.277px 208.579px;" id="eltrbkxpjej6" class="animable"></path><path d="M223.08,284.57c-12.15,16.12-40.11,17.93-60.42,5.3s-29-37.26-16.89-53.38,40.59-17.64,60.91-5S235.24,268.44,223.08,284.57Z" style="fill: rgb(255, 255, 255); transform-origin: 184.495px 260.616px;" id="elzc5gci7hru" class="animable"></path><path d="M227.23,284.21c-12.16,16.13-40.11,17.94-60.43,5.31s-29-37.26-16.88-53.38,40.58-17.64,60.9-5S239.38,268.09,227.23,284.21Z" style="fill: rgb(38, 50, 56); transform-origin: 188.637px 260.266px;" id="elwy0m12a1nn" class="animable"></path><path d="M273,252.19c-18.73-7.54-27.75-34.06-20.84-57S280.6,157.49,299.33,165s27.59,34.6,20.68,57.51S291.75,259.73,273,252.19Z" style="fill: rgb(38, 50, 56); transform-origin: 286.096px 208.621px;" id="elaux9aoa1w3u" class="animable"></path><path d="M254.6,274.8a7.77,7.77,0,0,1-2.13-.3c-3.43-1-6.07-4.83-7.05-6.44A1.5,1.5,0,0,1,248,266.5c1.66,2.72,3.65,4.63,5.33,5.12a4.65,4.65,0,0,0,4.89-1.55,6,6,0,0,0,.78-4.26,21,21,0,0,0-1.67-4.92,1.5,1.5,0,1,1,2.75-1.2,22.9,22.9,0,0,1,1.88,5.67,8.77,8.77,0,0,1-1.3,6.46A7.45,7.45,0,0,1,254.6,274.8Z" style="fill: rgb(38, 50, 56); transform-origin: 253.658px 266.794px;" id="elw2aa3rqhbcj" class="animable"></path><path d="M160.72,259.41a8.84,8.84,0,0,0-3-5.28,9,9,0,0,0-7.83-1.15,26.63,26.63,0,0,0-7.29,3.69l.6.78c1.21,3.71.36,8.08,2.54,11.31a7.71,7.71,0,0,0,7.22,3.15,9.17,9.17,0,0,0,6.6-4.5A11.35,11.35,0,0,0,160.72,259.41Z" style="fill: rgb(255, 255, 255); transform-origin: 151.797px 262.261px;" id="eliy9iblrqi6" class="animable"></path><path d="M267.53,204.8a8.88,8.88,0,0,0-.41-6.08,9.06,9.06,0,0,0-6.54-4.46,26.36,26.36,0,0,0-8.17.13l-.9.83c-.54,3.87-2.12,7.55-1.57,11.41a7.71,7.71,0,0,0,5.1,6,9.18,9.18,0,0,0,7.91-1.15A11.39,11.39,0,0,0,267.53,204.8Z" style="fill: rgb(255, 255, 255); transform-origin: 258.854px 203.53px;" id="el3wam61ldr9v" class="animable"></path><path d="M212.55,304.14c.68,2.52-2.29,5.5-6.63,6.66s-8.41.08-9.09-2.44,2.3-5.49,6.64-6.66S211.88,301.63,212.55,304.14Z" style="fill: rgb(0, 255, 136); transform-origin: 204.69px 306.249px;" id="elqfmw29z04zk" class="animable"></path><path d="M290.56,236.61a44.23,44.23,0,0,0-13.07,31.82l4.36,11.68c12.89,1.63,25.34-7.14,31.79-18.42s8-24.61,9-37.56A44.26,44.26,0,0,0,290.56,236.61Z" style="fill: rgb(69, 90, 100); transform-origin: 300.064px 252.209px;" id="el5a4m7xlm2gl" class="animable"></path><path d="M307.53,237.45c1,2.39-1.49,5.76-5.63,7.54s-8.31,1.26-9.33-1.13,1.49-5.77,5.62-7.54S306.5,235.06,307.53,237.45Z" style="fill: rgb(0, 255, 136); transform-origin: 300.047px 240.657px;" id="elunqtffp1jz" class="animable"></path><path d="M323.72,225.1a2.82,2.82,0,0,1-.66,0c-.44,0-1.07-.09-1.89-.09a42.15,42.15,0,0,0-42.74,33.81c-.19.8-.26,1.43-.35,1.85a2.76,2.76,0,0,1-.15.64,4,4,0,0,1,.05-.65c0-.43.09-1.07.25-1.88a38.1,38.1,0,0,1,1.76-6.72,40.66,40.66,0,0,1,24.22-24.68,41.13,41.13,0,0,1,10-2.41,38.77,38.77,0,0,1,6.95-.17c.83,0,1.46.15,1.89.19A3.65,3.65,0,0,1,323.72,225.1Z" style="fill: rgb(38, 50, 56); transform-origin: 300.825px 243.014px;" id="elbsbozd2buqg" class="animable"></path><path d="M127,197a49.23,49.23,0,0,0-39.06,13.69c-2.31,2.25,1.23,5.78,3.53,3.53A44.45,44.45,0,0,1,127,202a2.52,2.52,0,0,0,2.5-2.5A2.55,2.55,0,0,0,127,197Z" style="fill: rgb(69, 90, 100); transform-origin: 108.344px 205.856px;" id="eldzvcwlsqf5b" class="animable"></path><path d="M217.85,126.12a67.81,67.81,0,0,0-37.72-25.68,66.3,66.3,0,0,0-13.06-2c-3.21-.17-3.2,4.83,0,5a62.45,62.45,0,0,1,38.38,16.2,60.43,60.43,0,0,1,8.08,9,2.57,2.57,0,0,0,3.42.9,2.51,2.51,0,0,0,.9-3.42Z" style="fill: rgb(69, 90, 100); transform-origin: 191.427px 114.146px;" id="elapywvoshsij" class="animable"></path><circle cx="86.22" cy="215.91" r="8.14" style="fill: rgb(69, 90, 100); transform-origin: 86.22px 215.91px;" id="elmmebqnuv9r8" class="animable"></circle><g id="el99l3y4fgnfv"><circle cx="166.9" cy="100.71" r="8.14" style="fill: rgb(69, 90, 100); transform-origin: 166.9px 100.71px; transform: rotate(-80.81deg);" class="animable"></circle></g><path d="M120.79,196.9a7.93,7.93,0,0,1-1.33.2c-.86.09-2.1.25-3.62.51a56,56,0,0,0-22.21,8.82c-1.28.86-2.3,1.59-3,2.11a6.24,6.24,0,0,1-1.11.77,7.18,7.18,0,0,1,1-.92c.65-.58,1.64-1.36,2.9-2.27a50.61,50.61,0,0,1,22.36-8.88,34.74,34.74,0,0,1,3.66-.34A5.84,5.84,0,0,1,120.79,196.9Z" style="fill: rgb(38, 50, 56); transform-origin: 105.155px 203.085px;" id="el0w4t5g6cgps9" class="animable"></path><path d="M120.46,202.47c0,.1-1.63,0-4.22.27a38.59,38.59,0,0,0-4.52.69,41,41,0,0,0-5.37,1.56,39.43,39.43,0,0,0-5.08,2.32,38.84,38.84,0,0,0-3.88,2.42c-2.12,1.52-3.31,2.62-3.37,2.55a5.1,5.1,0,0,1,.78-.83,25.73,25.73,0,0,1,2.37-2,34,34,0,0,1,3.86-2.55A35.48,35.48,0,0,1,111.62,203a34.18,34.18,0,0,1,4.59-.59,27.21,27.21,0,0,1,3.11,0A5.85,5.85,0,0,1,120.46,202.47Z" style="fill: rgb(38, 50, 56); transform-origin: 107.24px 207.324px;" id="eln69puqi0nw" class="animable"></path><path d="M196.29,114.58c-.06.06-1.11-.9-2.94-2.27a42.26,42.26,0,0,0-16.12-7.37c-2.24-.5-3.65-.66-3.64-.75a3.34,3.34,0,0,1,1,0,24,24,0,0,1,2.71.37A36.83,36.83,0,0,1,193.57,112a25.62,25.62,0,0,1,2.05,1.81C196.08,114.29,196.32,114.55,196.29,114.58Z" style="fill: rgb(38, 50, 56); transform-origin: 184.941px 109.368px;" id="elp8coktm23v" class="animable"></path><path d="M202.13,112.37c-.07.07-1.32-1.14-3.54-2.85a48.38,48.38,0,0,0-19.72-9c-2.74-.57-4.48-.72-4.47-.82a6.39,6.39,0,0,1,1.23,0,33.16,33.16,0,0,1,3.31.43,43.25,43.25,0,0,1,19.87,9.09,31.93,31.93,0,0,1,2.49,2.23A5.5,5.5,0,0,1,202.13,112.37Z" style="fill: rgb(38, 50, 56); transform-origin: 188.265px 106.022px;" id="el4s3hlnf56kg" class="animable"></path><path d="M234.48,147.26a2.77,2.77,0,0,1,.15.41c.1.29.23.7.39,1.21a34.66,34.66,0,0,1,1.28,12.54,30.36,30.36,0,0,1-2.54,9.94,23.45,23.45,0,0,1-21.21,14.11,20.54,20.54,0,0,1-7.64-1.32l-.93-.37c-.31-.14-.6-.31-.9-.46l-.9-.47-.84-.57a14.2,14.2,0,0,1-3.11-2.69,11.68,11.68,0,0,1-2.18-3.6,8.56,8.56,0,0,1-.42-4.26,7.12,7.12,0,0,1,1.93-3.91,6.37,6.37,0,0,1,4-1.8,8,8,0,0,1,4.32.89,9.42,9.42,0,0,1,3.23,2.91,13,13,0,0,1,2.29,8,15.56,15.56,0,0,1-2.44,7.7,16.8,16.8,0,0,1-5.51,5.46,14.19,14.19,0,0,1-7.1,2,16.1,16.1,0,0,1-6.8-1.53,21.1,21.1,0,0,1-9.1-8.36,26.57,26.57,0,0,1-3.26-9.72,38.17,38.17,0,0,1-.24-7.75,40.31,40.31,0,0,1,.92-6.53s0,.14,0,.43-.11.72-.19,1.26c-.15,1.1-.36,2.74-.48,4.85a39.19,39.19,0,0,0,.33,7.7,26.25,26.25,0,0,0,3.29,9.57,20.77,20.77,0,0,0,9,8.16,15.78,15.78,0,0,0,6.61,1.46,13.78,13.78,0,0,0,6.86-1.94,16.39,16.39,0,0,0,5.33-5.31,15.14,15.14,0,0,0,2.36-7.46,12.47,12.47,0,0,0-2.2-7.72,8.94,8.94,0,0,0-3.05-2.75,7.5,7.5,0,0,0-4-.83,5.85,5.85,0,0,0-3.7,1.65,6.53,6.53,0,0,0-1.77,3.62,9.12,9.12,0,0,0,2.46,7.44,13.82,13.82,0,0,0,3,2.61l.82.56.87.46.87.45.91.35a19.73,19.73,0,0,0,7.45,1.31,23.09,23.09,0,0,0,20.89-13.79,30.39,30.39,0,0,0,2.58-9.81,33.53,33.53,0,0,0-.15-7.7,37.42,37.42,0,0,0-.94-4.78c-.14-.52-.26-.93-.34-1.23A1.89,1.89,0,0,1,234.48,147.26Z" style="fill: rgb(38, 50, 56); transform-origin: 206.634px 170.12px;" id="el2hq0nhxrz9c" class="animable"></path><path d="M94.63,216.38c-.09,0,0-.76-.2-1.93a7.42,7.42,0,0,0-6.07-6.09c-1.16-.22-1.92-.12-1.92-.21a3.78,3.78,0,0,1,2-.15,7.16,7.16,0,0,1,6.37,6.4A3.89,3.89,0,0,1,94.63,216.38Z" style="fill: rgb(38, 50, 56); transform-origin: 90.6523px 212.155px;" id="elfwf7z758zru" class="animable"></path><path d="M173.46,96.09a4,4,0,0,1,1,1.73,8.7,8.7,0,0,1-1.92,9,4.21,4.21,0,0,1-1.6,1.18c0-.07.56-.52,1.33-1.43a9.3,9.3,0,0,0,1.84-8.68C173.76,96.79,173.39,96.13,173.46,96.09Z" style="fill: rgb(38, 50, 56); transform-origin: 172.959px 102.045px;" id="elaka9phgsltg" class="animable"></path><path d="M113.88,194.21a3,3,0,0,1,.16-.65c.14-.47.32-1.08.55-1.83s.54-1.77,1-2.88.81-2.38,1.37-3.76c1-2.78,2.46-6,4.15-9.58s3.77-7.34,6.13-11.21,4.85-7.41,7.22-10.55,4.65-5.84,6.65-8c1-1.12,1.92-2.08,2.73-2.94s1.53-1.57,2.13-2.15l1.38-1.32a3.2,3.2,0,0,1,.51-.43,3.59,3.59,0,0,1-.44.51l-1.31,1.39c-.57.59-1.28,1.32-2.06,2.2s-1.71,1.85-2.67,3c-2,2.22-4.18,5-6.54,8.09s-4.78,6.69-7.16,10.53-4.39,7.65-6.14,11.16-3.14,6.74-4.23,9.49c-.58,1.37-1,2.63-1.45,3.73s-.76,2.06-1,2.84-.48,1.34-.64,1.8A3.94,3.94,0,0,1,113.88,194.21Z" style="fill: rgb(255, 255, 255); transform-origin: 130.87px 166.56px;" id="elgbhbecn7tqh" class="animable"></path><path d="M115,236.05a5,5,0,0,1-.4-1c-.23-.66-.51-1.64-.82-2.85a55.48,55.48,0,0,1-1.32-19.44c.14-1.24.29-2.25.43-2.93a3.87,3.87,0,0,1,.26-1.06c.08,0-.13,1.54-.32,4a66.74,66.74,0,0,0,0,9.71,68.18,68.18,0,0,0,1.36,9.61C114.67,234.54,115.09,236,115,236.05Z" style="fill: rgb(255, 255, 255); transform-origin: 113.572px 222.41px;" id="elk5y02kpg4o8" class="animable"></path><path d="M80.38,219.07s-.47-.39-.83-1.28A6.24,6.24,0,0,1,81,210.9c.69-.66,1.25-.88,1.28-.83s-.43.4-1,1.08a6.79,6.79,0,0,0-1.39,6.52A14.48,14.48,0,0,1,80.38,219.07Z" style="fill: rgb(255, 255, 255); transform-origin: 80.679px 214.567px;" id="elnc14dd3djn8" class="animable"></path><path d="M163.14,104.19s-.46-.4-.83-1.28a6.3,6.3,0,0,1-.32-3.67A6.38,6.38,0,0,1,163.78,96c.7-.65,1.25-.88,1.28-.83s-.42.4-1,1.09a6.91,6.91,0,0,0-1.55,3.07,7,7,0,0,0,.16,3.45A11.89,11.89,0,0,1,163.14,104.19Z" style="fill: rgb(255, 255, 255); transform-origin: 163.457px 99.6767px;" id="elvpd8bu0ega" class="animable"></path><path d="M408.8,341.56c-8.95-9.85-19.05-19.46-23.16-32.13-5.09-15.68-.28-34.12-8.78-48.25-5.5-9.14-15.67-14.56-26-17.29-14.08-3.73-29.76-3-42.38,4.25-17,9.84-25.87,30.13-27,49.78s4.1,39,9.33,58c-.75,4.67-.09,10.76,1.6,16.38a4.29,4.29,0,0,0,7.8.95c1.73-2.89,3.13-6.19,4.71-8.73.2,6.5,11.31,21.79,17.73,22.79s7.45-12.43,9.6-18.56c2.09,8,20.41,21.3,28.19,18.61s4.69-19.76,6.31-27.83c2,5.2,15.23,20.38,20.81,20.44s3.21-15,5.36-20.15c3.78,4.14,13.92,6.38,19.71,5.18a10.36,10.36,0,0,0,7.05-5C423.17,353.54,413.61,346.87,408.8,341.56Z" style="fill: rgb(0, 255, 136); transform-origin: 350.877px 314.698px;" id="el410a8bi39rf" class="animable"></path><g id="elj2grbkwo0hs"><g style="opacity: 0.2; transform-origin: 332.193px 289.421px;" class="animable"><path d="M381,276.63c-.13,1.54-6,1.9-14.56,4.85a79,79,0,0,0-14.26,6.67,93.06,93.06,0,0,0-7.8,5.18c-2.71,2-5.62,4.19-9,6.27A36.16,36.16,0,0,1,324,304.29a34,34,0,0,1-11.49.34,45,45,0,0,1-17.18-6.28,52.37,52.37,0,0,1-9.37-7.11c-2-1.94-2.86-3.31-2.49-3.92s2-.4,4.6.46,6.16,2.38,10.46,3.94a51.69,51.69,0,0,0,14.91,3.36,28.37,28.37,0,0,0,8.3-.74,30.55,30.55,0,0,0,8.22-3.65c2.83-1.71,5.65-3.76,8.6-5.74a75.61,75.61,0,0,1,9.11-5.27,58.06,58.06,0,0,1,17.1-5.37,36,36,0,0,1,12.06.16c.7.16,1.32.31,1.85.49a9.6,9.6,0,0,1,1.32.57C380.65,275.9,381,276.27,381,276.63Z" style="fill: rgb(255, 255, 255); transform-origin: 332.193px 289.421px;" id="elmfm5x2bsru" class="animable"></path></g></g><g id="elbkz1cy5lfb"><g style="opacity: 0.2; transform-origin: 341.475px 342.787px;" class="animable"><path d="M394.41,325.27c-.06.36-.53.67-1.32.93-.39.15-.87.21-1.41.4s-1.16.32-1.84.51a28.69,28.69,0,0,0-10,5.44,54.27,54.27,0,0,0-5.9,5.7c-2,2.24-4.11,4.75-6.53,7.56a77.73,77.73,0,0,1-8.4,8.48,36.51,36.51,0,0,1-12,7,27.26,27.26,0,0,1-7.49,1.3,26.3,26.3,0,0,1-7.25-.87,44.55,44.55,0,0,1-11.5-5.05c-1.62-1-3.14-1.93-4.57-2.85L314,352.5l-1-.64-.9-.56a40.71,40.71,0,0,0-7.23-3.4,33.9,33.9,0,0,0-11.41-2.12c-2.78,0-4.49.3-4.86-.37s.82-2.2,4-3.59a20.8,20.8,0,0,1,6-1.43,30.6,30.6,0,0,1,8.08.37,38.8,38.8,0,0,1,9.38,2.86l1.23.58,1.14.57,2.27,1.16c1.52.79,3,1.58,4.56,2.34a41.07,41.07,0,0,0,9.28,3.56,16.84,16.84,0,0,0,9.15-.41,29.27,29.27,0,0,0,8.8-5,91.59,91.59,0,0,0,7.85-7.13c2.46-2.47,5-5,7.54-7.22a46.51,46.51,0,0,1,7.81-5.61,27.85,27.85,0,0,1,7.64-3,19.63,19.63,0,0,1,6.2-.39c.85.12,1.58.29,2.21.44a7,7,0,0,1,1.53.61C394.1,324.53,394.46,324.92,394.41,325.27Z" style="fill: rgb(255, 255, 255); transform-origin: 341.475px 342.787px;" id="elrlpojobim5t" class="animable"></path></g></g><path d="M328.17,350.76a24.73,24.73,0,0,1,.29,3,54.3,54.3,0,0,0,1.12,7.2,55.59,55.59,0,0,0,2.11,7,24.62,24.62,0,0,1,1.05,2.84,13.5,13.5,0,0,1-1.39-2.71,40.64,40.64,0,0,1-3.26-14.3A13.68,13.68,0,0,1,328.17,350.76Z" style="fill: rgb(38, 50, 56); transform-origin: 330.391px 360.78px;" id="elyt20axa770f" class="animable"></path><path d="M363.5,339.15a6.4,6.4,0,0,1,.33,1.22c.19.79.42,1.94.68,3.38A106.43,106.43,0,0,1,366,366.39c-.07,1.46-.15,2.63-.23,3.44a5.28,5.28,0,0,1-.18,1.25,6.49,6.49,0,0,1,0-1.26c0-.92,0-2.07.06-3.44,0-2.9,0-6.9-.29-11.32s-.78-8.39-1.2-11.26c-.2-1.35-.37-2.49-.51-3.39A5.36,5.36,0,0,1,363.5,339.15Z" style="fill: rgb(38, 50, 56); transform-origin: 364.795px 355.115px;" id="el0qad9oi2k32q" class="animable"></path><path d="M390.05,346.29a9,9,0,0,1,.68,2.28c.34,1.44.72,3.44,1,5.67s.41,4.26.45,5.73a9.62,9.62,0,0,1-.09,2.38,13.05,13.05,0,0,1-.28-2.36c-.13-1.46-.32-3.47-.6-5.69s-.6-4.21-.85-5.65A13.1,13.1,0,0,1,390.05,346.29Z" style="fill: rgb(38, 50, 56); transform-origin: 391.133px 354.32px;" id="elw3t0aijjc8" class="animable"></path><path d="M303.37,353.85a10.66,10.66,0,0,1,.48,2.22c.28,1.57.61,3.37,1,5.35s.76,3.78,1.08,5.34a9.62,9.62,0,0,1,.36,2.24,9.85,9.85,0,0,1-.72-2.15c-.38-1.35-.83-3.23-1.23-5.33s-.67-4-.82-5.4A9.56,9.56,0,0,1,303.37,353.85Z" style="fill: rgb(38, 50, 56); transform-origin: 304.823px 361.425px;" id="elrp41jbjmck" class="animable"></path><g id="elrsyjpk8ox"><g style="opacity: 0.2; transform-origin: 332.575px 321.098px;" class="animable"><path d="M383.23,303.91c.08.19-1.4.91-3.92,2.45a78.39,78.39,0,0,0-10,7.44c-4,3.42-8.5,7.89-13.93,12.47a69.87,69.87,0,0,1-9.1,6.57A40.15,40.15,0,0,1,335,337.47a28.64,28.64,0,0,1-12.31.33A27.63,27.63,0,0,1,312.3,333c-2.94-2.1-5.44-4.39-7.78-6.43a65.16,65.16,0,0,0-6.72-5.31,22.35,22.35,0,0,0-11.33-4.09c-2.9-.12-4.48.45-4.55.23s1.45-1,4.54-1.24a18,18,0,0,1,5.55.6,26,26,0,0,1,6.78,2.94,61.8,61.8,0,0,1,7.12,5.22c2.43,2,4.94,4.17,7.76,6.11a25.86,25.86,0,0,0,9.55,4.27,26.75,26.75,0,0,0,11.2-.36c7.66-1.78,14.05-6.18,19.44-10.52s10.05-8.75,14.29-12a59.62,59.62,0,0,1,10.67-6.91C381.55,304.18,383.17,303.76,383.23,303.91Z" style="fill: rgb(255, 255, 255); transform-origin: 332.575px 321.098px;" id="el5ia9gvqvy0s" class="animable"></path></g></g><g id="elrl4vxas4egm"><g style="opacity: 0.2; transform-origin: 335.335px 256.436px;" class="animable"><path d="M364.31,248.82c.12.35-3.15,1.83-8,5-2.46,1.56-5.34,3.54-8.78,5.48a36.41,36.41,0,0,1-12.16,4.55,22.42,22.42,0,0,1-6.89,0,26.85,26.85,0,0,1-6.12-1.72,38.85,38.85,0,0,1-9.07-5.38,59,59,0,0,1-5.28-4.61c-1.16-1.17-1.75-1.88-1.64-2s.93.31,2.29,1.23,3.28,2.32,5.7,3.91a44.58,44.58,0,0,0,8.87,4.64A23.27,23.27,0,0,0,335,261.3a38.08,38.08,0,0,0,11.41-4.09c3.38-1.76,6.38-3.58,9-5C360.56,249.41,364.21,248.49,364.31,248.82Z" style="fill: rgb(255, 255, 255); transform-origin: 335.335px 256.436px;" id="el142jjuenomie" class="animable"></path></g></g><g id="eltej1hvgo6mq"><circle cx="310.95" cy="283.16" r="18.33" style="fill: rgb(255, 255, 255); transform-origin: 310.95px 283.16px; transform: rotate(-30.16deg);" class="animable"></circle></g><g id="el5ki2guff3fo"><circle cx="310.71" cy="280.79" r="17.29" style="fill: rgb(38, 50, 56); transform-origin: 310.71px 280.79px; transform: rotate(-59.8deg);" class="animable"></circle></g><path d="M324.8,290.9c.47-1.72.67-3.71-.38-5.15a4.47,4.47,0,0,0-3.48-1.66,6,6,0,0,0-4.07,10.56l1.91,1.58a4.23,4.23,0,0,0,4.05-1.35A8.94,8.94,0,0,0,324.8,290.9Z" style="fill: rgb(255, 255, 255); transform-origin: 319.974px 290.204px;" id="elfp671pxjo5o" class="animable"></path><g id="elpemlqge5anm"><circle cx="357.71" cy="290.01" r="18.33" style="fill: rgb(255, 255, 255); transform-origin: 357.71px 290.01px; transform: rotate(-25.26deg);" class="animable"></circle></g><path d="M373.73,293.51a17.29,17.29,0,1,1-10.39-22.13A17.3,17.3,0,0,1,373.73,293.51Z" style="fill: rgb(38, 50, 56); transform-origin: 357.465px 287.642px;" id="elix6k6cpopz8" class="animable"></path><path d="M373.39,298.11c.46-1.72.66-3.71-.39-5.15a4.46,4.46,0,0,0-3.47-1.67,6,6,0,0,0-4.08,10.57l1.91,1.57a4.23,4.23,0,0,0,4.05-1.34A9.12,9.12,0,0,0,373.39,298.11Z" style="fill: rgb(255, 255, 255); transform-origin: 368.549px 297.404px;" id="el83o1jqo4umr" class="animable"></path><path d="M332.29,303.94a4.5,4.5,0,0,1-3.66-1.95c-1.19-1.74-.4-5.06-.24-5.5a1,1,0,0,1,1.88.68c-.22.61-.52,2.91,0,3.69a2.39,2.39,0,0,0,2.71.94,3,3,0,0,0,1.53-1.72,10.92,10.92,0,0,0,.56-2.84,1,1,0,0,1,2,.22,12.59,12.59,0,0,1-.7,3.36,4.88,4.88,0,0,1-2.63,2.84A3.82,3.82,0,0,1,332.29,303.94Z" style="fill: rgb(38, 50, 56); transform-origin: 332.53px 299.898px;" id="el8n6lrms9grk" class="animable"></path><path d="M347.3,228.39a45,45,0,0,0-17.25,20.22L373,221.51A45.06,45.06,0,0,0,347.3,228.39Z" style="fill: rgb(0, 255, 136); transform-origin: 351.525px 235.044px;" id="elyo40zmxxrg" class="animable"></path><path d="M372.1,221.56a9.22,9.22,0,0,1-1.56.47c-1,.25-2.46.67-4.23,1.24s-3.86,1.33-6.12,2.29a67.73,67.73,0,0,0-13.85,8c-2,1.48-3.69,2.88-5.06,4.14s-2.48,2.28-3.21,3a9.9,9.9,0,0,1-1.18,1.11,9.28,9.28,0,0,1,1-1.25c.69-.79,1.75-1.88,3.11-3.17a59.82,59.82,0,0,1,5-4.24,68.12,68.12,0,0,1,6.72-4.46,71.66,71.66,0,0,1,7.23-3.56,59.53,59.53,0,0,1,6.2-2.2c1.8-.53,3.27-.9,4.3-1.09A9.88,9.88,0,0,1,372.1,221.56Z" style="fill: rgb(38, 50, 56); transform-origin: 354.495px 231.685px;" id="el8pzwdcjx89s" class="animable"></path><path d="M346.11,238.57c-.12.08-.72-.6-1.24-1.58s-.75-1.86-.62-1.91.57.71,1.08,1.67S346.23,238.49,346.11,238.57Z" style="fill: rgb(38, 50, 56); transform-origin: 345.173px 236.827px;" id="elrivoltt5uc" class="animable"></path><path d="M350.61,235.82c-.12.08-.78-.72-1.48-1.79a5.43,5.43,0,0,1-1-2.06c.12-.08.78.72,1.48,1.78A5.36,5.36,0,0,1,350.61,235.82Z" style="fill: rgb(38, 50, 56); transform-origin: 349.37px 233.895px;" id="elz2zwyoeg5s" class="animable"></path><path d="M356,231.83c-.12.08-.72-.59-1.34-1.5s-1-1.71-.91-1.79.72.59,1.34,1.5S356.11,231.75,356,231.83Z" style="fill: rgb(38, 50, 56); transform-origin: 354.878px 230.185px;" id="elbbhnbn525es" class="animable"></path><path d="M361.69,228.62c-.12.08-.68-.47-1.26-1.24s-.95-1.47-.83-1.55.67.47,1.25,1.24S361.8,228.53,361.69,228.62Z" style="fill: rgb(38, 50, 56); transform-origin: 360.643px 227.225px;" id="elg17kp1yeznj" class="animable"></path><path d="M384.07,246.62a45,45,0,0,0-17.25,20.22l42.92-27.1A45,45,0,0,0,384.07,246.62Z" style="fill: rgb(0, 255, 136); transform-origin: 388.28px 253.274px;" id="ela9wrlbe5c0r" class="animable"></path><path d="M408.86,240.11a9.44,9.44,0,0,1-1.44.71l-4,1.83c-3.34,1.56-7.91,3.82-12.83,6.57s-9.22,5.48-12.29,7.52l-3.64,2.44a9.76,9.76,0,0,1-1.36.86,9.52,9.52,0,0,1,1.25-1c.81-.63,2-1.51,3.54-2.57,3-2.13,7.32-4.91,12.25-7.68s9.54-5,12.93-6.44c1.7-.74,3.08-1.32,4-1.68A9.83,9.83,0,0,1,408.86,240.11Z" style="fill: rgb(38, 50, 56); transform-origin: 391.08px 250.075px;" id="elp09mgdb9j5h" class="animable"></path><path d="M379.84,258.49c-.11.1-.58-.26-.93-.88s-.41-1.2-.27-1.24.4.43.72,1S380,258.39,379.84,258.49Z" style="fill: rgb(38, 50, 56); transform-origin: 379.226px 257.437px;" id="el4y7roapzsom" class="animable"></path><path d="M385.91,255.46c-.12.08-.59-.37-1-1s-.74-1.22-.63-1.3.59.36,1.05,1S386,255.37,385.91,255.46Z" style="fill: rgb(38, 50, 56); transform-origin: 385.095px 254.31px;" id="elanw2wwvxw0j" class="animable"></path><path d="M392.26,251.13c-.12.08-.54-.33-.95-.91s-.64-1.13-.52-1.21.54.32.95.91S392.38,251.05,392.26,251.13Z" style="fill: rgb(38, 50, 56); transform-origin: 391.525px 250.07px;" id="ely8iujay5c" class="animable"></path><path d="M398.55,247.52c-.1.1-.56-.19-1-.64s-.74-.92-.64-1,.55.19,1,.65S398.65,247.42,398.55,247.52Z" style="fill: rgb(38, 50, 56); transform-origin: 397.73px 246.703px;" id="eld8zuth40kkb" class="animable"></path><path d="M312.28,266.11a30.93,30.93,0,0,0-3.86.25,14.66,14.66,0,0,0-12.22,12.26,30.28,30.28,0,0,0-.23,3.85,3.36,3.36,0,0,1-.19-1,13,13,0,0,1,.06-2.88A14.42,14.42,0,0,1,308.37,266a12.94,12.94,0,0,1,2.87-.06A3.33,3.33,0,0,1,312.28,266.11Z" style="fill: rgb(255, 255, 255); transform-origin: 304.004px 274.179px;" id="el2gjiyzpilf5" class="animable"></path><path d="M317.05,267.49c-.07.13-.49,0-.94-.2s-.75-.53-.69-.66.49,0,.94.2S317.11,267.37,317.05,267.49Z" style="fill: rgb(255, 255, 255); transform-origin: 316.235px 267.06px;" id="elrudhia53f48" class="animable"></path><path d="M360.43,273.27a25.07,25.07,0,0,0-4.12-.26,14.26,14.26,0,0,0-13.56,12.27,24,24,0,0,0-.15,4.14,3.83,3.83,0,0,1-.23-1.11,12.54,12.54,0,0,1,0-3.08,14.16,14.16,0,0,1,13.91-12.59,12.61,12.61,0,0,1,3.07.3A4.08,4.08,0,0,1,360.43,273.27Z" style="fill: rgb(255, 255, 255); transform-origin: 351.353px 281.028px;" id="elbrfynxn5bws" class="animable"></path><path d="M402.42,295a18.55,18.55,0,0,0-18.79-9.57c-3.22,1.3-3.1,6.48-4.09,9.8-1.17,4-2.36,8-2.31,12.14s1.53,8.46,4.81,11a11.7,11.7,0,0,0,9.07,2.08,15.32,15.32,0,0,0,8.25-4.56A18.57,18.57,0,0,0,402.42,295Z" style="fill: rgb(69, 90, 100); transform-origin: 390.786px 302.956px;" id="ell3z9304p8q8" class="animable"></path><path d="M314.09,311.52c-3.46-2.54-7.93-3.22-12.21-3.45-11.94-.63-22.62,4.19-34.35,6.47-17.7,3.43-36.65,4.33-53.8,9.89l-4.3.45c-3.83,4.27-4,11-1.3,16.11s7.69,8.59,13.05,10.65c10,3.85,21.13,3.13,31.81,2.12a327.12,327.12,0,0,0,36.5-5.17c6.15-1.3,12.33-2.91,17.78-6s10.14-8,11.88-14.05S319.15,315.24,314.09,311.52Z" style="fill: rgb(69, 90, 100); transform-origin: 263.053px 331.288px;" id="el1iz8xctgpkt" class="animable"></path><path d="M310.28,341.3a.86.86,0,0,1-.24.11l-.72.28-2.79,1c-2.43.86-5.95,2.1-10.34,3.53s-9.63,3.07-15.55,4.55c-3,.74-6.08,1.44-9.35,2s-6.67,1.13-10.18,1.47a164.89,164.89,0,0,1-19.83.94A63.53,63.53,0,0,1,225.23,353a36.77,36.77,0,0,1-10-4.45,24.26,24.26,0,0,1-2.42-1.72l-.61-.48-.2-.17s.09,0,.23.13l.64.44c.57.36,1.34,1,2.47,1.63a38.19,38.19,0,0,0,10,4.27,64.65,64.65,0,0,0,16,2.09,170.88,170.88,0,0,0,19.77-1c3.49-.34,6.88-.84,10.14-1.45s6.37-1.28,9.33-2c5.91-1.45,11.16-3,15.55-4.43s7.93-2.57,10.38-3.37l2.83-.92.73-.23A.88.88,0,0,1,310.28,341.3Z" style="fill: rgb(38, 50, 56); transform-origin: 261.14px 348.247px;" id="eloh76ii4uspa" class="animable"></path><path d="M290,309.28a8.66,8.66,0,0,1-1.42.49c-.92.29-2.26.68-3.93,1.13-3.33.91-8,2.06-13.13,3.12s-9.87,1.83-13.29,2.3c-1.71.24-3.1.41-4.06.51a7.62,7.62,0,0,1-1.5.1,9.26,9.26,0,0,1,1.47-.3l4-.67c3.4-.57,8.1-1.4,13.25-2.45s9.79-2.15,13.14-3l4-1A7.35,7.35,0,0,1,290,309.28Z" style="fill: rgb(38, 50, 56); transform-origin: 271.335px 313.107px;" id="elv4q0hja8sed" class="animable"></path><path d="M246.94,318.25a3.86,3.86,0,0,1-1.1.08l-3,.08c-2.52.07-6,.24-9.81.64s-7.25.95-9.72,1.41l-2.93.54a4.19,4.19,0,0,1-1.09.15,4.92,4.92,0,0,1,1-.34c.68-.2,1.67-.44,2.91-.72a90.11,90.11,0,0,1,9.74-1.56,88.3,88.3,0,0,1,9.86-.49c1.26,0,2.28,0,3,.09A5.52,5.52,0,0,1,246.94,318.25Z" style="fill: rgb(255, 255, 255); transform-origin: 233.115px 319.594px;" id="el36g2t50ozvg" class="animable"></path><path d="M221.68,282.69s.24-.64.68-1.78a38.5,38.5,0,0,0,1.89-21.85,37.75,37.75,0,0,0-7.2-15.3,39.73,39.73,0,0,0-3.45-3.87,14.8,14.8,0,0,1-1.35-1.35,2.38,2.38,0,0,1,.41.29c.25.21.63.49,1.08.92a32.65,32.65,0,0,1,3.6,3.78,36.3,36.3,0,0,1,6.95,32.53,32.92,32.92,0,0,1-1.74,4.92c-.24.57-.47,1-.61,1.28S221.7,282.7,221.68,282.69Z" style="fill: rgb(255, 255, 255); transform-origin: 218.906px 260.615px;" id="elsoq9sc41qv8" class="animable"></path><path d="M314.82,223s.24-.64.69-1.78a39.88,39.88,0,0,0,1.56-4.93,37.22,37.22,0,0,0-6.88-32.22,39.4,39.4,0,0,0-3.45-3.86c-.87-.86-1.37-1.32-1.35-1.35a2.38,2.38,0,0,1,.41.29c.25.2.63.49,1.08.91a33.48,33.48,0,0,1,3.6,3.78,36.33,36.33,0,0,1,6.95,32.54,32.92,32.92,0,0,1-1.74,4.92c-.24.57-.47,1-.61,1.28S314.84,223,314.82,223Z" style="fill: rgb(255, 255, 255); transform-origin: 312.045px 200.93px;" id="elhwsaffbcayl" class="animable"></path></g><defs>     <filter id="active" height="200%">         <feMorphology in="SourceAlpha" result="DILATED" operator="dilate" radius="2"></feMorphology>                <feFlood flood-color="#32DFEC" flood-opacity="1" result="PINK"></feFlood>        <feComposite in="PINK" in2="DILATED" operator="in" result="OUTLINE"></feComposite>        <feMerge>            <feMergeNode in="OUTLINE"></feMergeNode>            <feMergeNode in="SourceGraphic"></feMergeNode>        </feMerge>    </filter>    <filter id="hover" height="200%">        <feMorphology in="SourceAlpha" result="DILATED" operator="dilate" radius="2"></feMorphology>                <feFlood flood-color="#ff0000" flood-opacity="0.5" result="PINK"></feFlood>        <feComposite in="PINK" in2="DILATED" operator="in" result="OUTLINE"></feComposite>        <feMerge>            <feMergeNode in="OUTLINE"></feMergeNode>            <feMergeNode in="SourceGraphic"></feMergeNode>        </feMerge>            <feColorMatrix type="matrix" values="0   0   0   0   0                0   1   0   0   0                0   0   0   0   0                0   0   0   1   0 "></feColorMatrix>    </filter></defs></svg>